<svg width="360" height="419" viewBox="0 0 360 419" fill="none" xmlns="http://www.w3.org/2000/svg">
<path d="M346.683 0C346.683 1.99921 347.46 3.91653 348.843 5.33018C350.227 6.74383 352.103 7.53801 354.059 7.53801C356.015 7.53801 357.891 6.74383 359.275 5.33018C360.658 3.91653 361.435 1.99921 361.435 0H346.683ZM177.029 0.422129C163.166 0.455151 149.453 3.36856 136.726 8.98531C135.807 9.33911 134.967 9.87669 134.255 10.5665C133.542 11.2564 132.971 12.0847 132.576 13.0028C132.181 13.9209 131.969 14.9105 131.952 15.9134C131.936 16.9164 132.116 17.9126 132.481 18.8436C132.846 19.7747 133.389 20.6219 134.079 21.3356C134.769 22.0493 135.591 22.6152 136.497 23C137.404 23.3849 138.376 23.581 139.358 23.5768C140.34 23.5727 141.31 23.3684 142.214 22.9759C153.199 18.0925 165.05 15.5679 177.029 15.5585C189.008 15.5585 200.869 18.0912 211.845 22.9759C213.274 23.6193 214.867 23.7826 216.392 23.4421C217.918 23.1017 219.299 22.2752 220.336 21.0816C221.372 19.8881 222.012 18.389 222.161 16.8004C222.311 15.2118 221.964 13.6156 221.169 12.2417C220.303 10.7308 218.945 9.57836 217.333 8.98531C204.606 3.36856 190.893 0.455151 177.029 0.422129ZM331.989 2.41216C330.784 2.50196 329.618 2.89313 328.595 3.55126C327.573 4.20939 326.724 5.11431 326.123 6.18642C325.523 7.25853 325.19 8.46497 325.153 9.69962C325.116 10.9343 325.376 12.1593 325.911 13.2669C326.719 15.0629 327.686 16.7788 328.803 18.3928C329.348 19.2268 330.05 19.9413 330.868 20.4945C331.687 21.0477 332.605 21.4284 333.57 21.6144C334.534 21.8004 335.525 21.7878 336.484 21.5775C337.444 21.3672 338.353 20.9633 339.157 20.3896C339.962 19.8158 340.647 19.0837 341.172 18.2361C341.696 17.3886 342.05 16.4426 342.212 15.4535C342.374 14.4645 342.342 13.4523 342.116 12.4762C341.891 11.5002 341.478 10.5799 340.9 9.76927C340.268 8.85519 339.715 7.88667 339.248 6.87467C338.636 5.46909 337.619 4.28821 336.332 3.49053C335.045 2.69285 333.55 2.31656 332.048 2.41216H331.989ZM259.702 3.31673C258.681 3.39484 257.687 3.68929 256.784 4.18134C255.88 4.67339 255.087 5.35226 254.454 6.17475C253.822 6.99724 253.363 7.94534 253.109 8.95871C252.854 9.97208 252.808 11.0285 252.975 12.0608C254.609 26.1489 259.025 39.7512 265.957 52.0424C272.886 64.3169 282.181 75.0261 293.279 83.5212C294.36 84.4412 295.675 85.0263 297.071 85.2073C298.466 85.3884 299.883 85.1579 301.155 84.5431C302.426 83.9283 303.499 82.9547 304.247 81.7373C304.995 80.5198 305.387 79.1092 305.376 77.6717C305.376 75.1992 304.196 72.968 302.366 71.6413C292.745 64.3451 284.692 55.109 278.703 44.5044C272.711 33.8877 268.915 22.1268 267.551 9.95018C267.328 8.02541 266.388 6.2623 264.927 5.02703C263.465 3.79176 261.594 3.17926 259.702 3.31673ZM308.798 7.77923C307.646 7.85384 306.528 8.2037 305.532 8.80069C304.536 9.39767 303.692 10.2251 303.066 11.2164C302.441 12.2078 302.051 13.3353 301.93 14.5084C301.808 15.6815 301.958 16.8674 302.366 17.9706C304.672 24.8904 308.28 31.2821 312.988 36.7855C313.953 37.9985 315.262 38.8751 316.736 39.2938C318.21 39.7126 319.774 39.6529 321.213 39.123C322.652 38.5931 323.894 37.6192 324.768 36.3361C325.641 35.053 326.103 33.5242 326.088 31.9612C326.088 30.0918 325.38 28.3429 324.259 27.0162C320.684 22.9105 317.955 18.1115 316.234 12.9051C315.718 11.3344 314.71 9.9812 313.366 9.05465C312.022 8.12811 310.417 7.67986 308.798 7.77923ZM284.427 8.20136C283.336 8.27726 282.275 8.60029 281.32 9.14707C280.366 9.69385 279.543 10.4507 278.91 11.3627C278.278 12.2748 277.852 13.3192 277.663 14.4204C277.474 15.5215 277.527 16.6518 277.818 17.7294C279.569 25.5412 282.453 33.0416 286.375 39.9816C290.294 46.921 295.207 53.2222 300.95 58.6759C301.982 59.7207 303.292 60.4312 304.717 60.7182C306.141 61.0053 307.617 60.8561 308.96 60.2894C310.302 59.7227 311.451 58.7637 312.262 57.5326C313.073 56.3016 313.51 54.8532 313.519 53.3691C313.519 51.1379 312.634 49.1479 311.159 47.7609C306.411 43.3065 302.353 38.142 299.121 32.4436C295.905 26.7282 293.557 20.5469 292.158 14.1112C291.781 12.3521 290.8 10.7891 289.393 9.70504C287.985 8.62102 286.245 8.08761 284.486 8.20136H284.427ZM475.029 19.2973C473.259 19.2973 471.548 19.9607 470.308 21.0461C459.188 29.5339 449.872 40.2438 442.928 52.5249C435.996 64.8162 431.579 78.4184 429.946 92.5065C429.68 94.4897 430.195 96.4997 431.379 98.0943C432.564 99.6889 434.319 100.737 436.26 101.009C438.2 101.281 440.167 100.754 441.728 99.5441C443.288 98.334 444.314 96.5401 444.58 94.5568C445.934 82.4053 449.71 70.6661 455.674 60.0629C461.678 49.4515 469.752 40.2147 479.396 32.926C480.659 31.9848 481.597 30.6575 482.075 29.136C482.552 27.6144 482.544 25.9772 482.051 24.4607C481.559 22.9441 480.608 21.6268 479.335 20.6987C478.062 19.7706 476.534 19.2799 474.97 19.2973H475.029ZM177.029 24.5438C169.181 24.5438 161.392 25.8102 153.898 28.162C152.968 28.4392 152.1 28.9008 151.345 29.5206C150.59 30.1403 149.961 30.906 149.495 31.774C149.03 32.642 148.736 33.5952 148.63 34.5792C148.525 35.5632 148.611 36.5588 148.882 37.5092C149.153 38.4595 149.605 39.3459 150.211 40.1178C150.818 40.8897 151.567 41.532 152.416 42.0079C153.266 42.4839 154.198 42.7843 155.161 42.8919C156.124 42.9995 157.098 42.9122 158.028 42.635C164.176 40.6527 170.583 39.6361 177.029 39.6198C183.521 39.6198 189.894 40.7053 196.031 42.635C197.909 43.1948 199.927 42.9692 201.643 42.0079C203.358 41.0467 204.629 39.4284 205.177 37.5092C205.725 35.5899 205.504 33.5269 204.564 31.774C203.623 30.0211 202.039 28.7218 200.161 28.162C192.671 25.7814 184.874 24.5617 177.029 24.5438ZM483.172 43.5999C481.107 43.5999 479.278 44.4441 477.98 45.8311C472.216 51.2817 467.284 57.5829 463.345 64.5254C459.444 71.4689 456.58 78.9691 454.848 86.7776C454.532 87.7626 454.419 88.8036 454.515 89.8354C454.61 90.8673 454.913 91.8678 455.405 92.7746C455.896 93.6813 456.565 94.4748 457.37 95.1054C458.175 95.736 459.098 96.1903 460.083 96.4397C461.067 96.6891 462.091 96.7284 463.091 96.5551C464.091 96.3817 465.045 95.9995 465.894 95.4324C466.743 94.8652 467.469 94.1251 468.025 93.2586C468.581 92.392 468.957 91.4175 469.128 90.3959C470.548 83.9573 472.916 77.7761 476.15 72.0634C479.377 66.3437 483.436 61.1585 488.188 56.6859C489.283 55.6571 490.047 54.3143 490.382 52.8336C490.716 51.353 490.605 49.8035 490.063 48.3886C489.521 46.9736 488.572 45.7592 487.343 44.9046C486.113 44.0501 484.659 43.5953 483.172 43.5999ZM177.029 48.7257C173.489 48.7257 169.889 49.0875 166.408 49.8112C164.897 50.0502 163.495 50.7633 162.398 51.8518C161.301 52.9402 160.562 54.3503 160.283 55.8868C160.005 57.4233 160.2 59.0103 160.843 60.4283C161.485 61.8463 162.543 63.0251 163.87 63.8018C165.523 64.7666 167.352 65.0078 169.063 64.646C174.32 63.5511 179.739 63.5511 184.996 64.646C185.949 64.8242 186.927 64.8088 187.874 64.6006C188.822 64.3925 189.72 63.9957 190.517 63.4329C191.314 62.8702 191.995 62.1524 192.521 61.3207C193.047 60.4889 193.407 59.5595 193.582 58.5854C193.756 57.6114 193.741 56.6118 193.537 55.6436C193.334 54.6755 192.945 53.7579 192.395 52.9431C191.844 52.1284 191.142 51.4324 190.328 50.8951C189.514 50.3577 188.604 49.9894 187.651 49.8112C184.154 49.0967 180.596 48.7332 177.029 48.7257ZM495.742 64.9475C493.381 64.9475 491.375 65.9727 490.018 67.7215C485.311 73.2258 481.703 79.6173 479.396 86.5364C479.002 87.4818 478.801 88.4994 478.806 89.5269C478.811 90.5544 479.022 91.57 479.425 92.5113C479.828 93.4526 480.415 94.2997 481.15 95.0007C481.885 95.7017 482.753 96.2417 483.7 96.5875C484.647 96.9334 485.652 97.0778 486.656 97.0118C487.659 96.9459 488.639 96.671 489.534 96.2041C490.43 95.7372 491.223 95.0881 491.864 94.2967C492.505 93.5053 492.981 92.5883 493.263 91.6019C494.962 86.3984 497.672 81.5988 501.229 77.4908C502.172 76.4062 502.788 75.0668 503.004 73.6332C503.22 72.1997 503.027 70.7328 502.448 69.4087C501.868 68.0845 500.928 66.9593 499.738 66.168C498.549 65.3767 497.161 64.9529 495.742 64.9475ZM177.029 72.8474C176.085 72.8474 175.082 72.9077 174.138 73.0283C173.162 73.1008 172.21 73.371 171.338 73.8231C170.465 74.2751 169.69 74.9 169.056 75.6614C168.422 76.4228 167.942 77.3055 167.645 78.258C167.348 79.2106 167.24 80.214 167.326 81.2098C167.412 82.2057 167.691 83.1741 168.147 84.0587C168.602 84.9433 169.226 85.7263 169.981 86.3624C170.736 86.9984 171.607 87.4746 172.543 87.7633C173.48 88.052 174.463 88.1474 175.436 88.044C176.516 87.9389 177.602 87.9389 178.682 88.044C179.65 88.1272 180.626 88.0145 181.552 87.7125C182.478 87.4105 183.337 86.9251 184.079 86.2839C184.822 85.6427 185.433 84.8584 185.879 83.9757C186.325 83.0929 186.596 82.1291 186.678 81.1392C186.759 80.1493 186.649 79.1527 186.353 78.2063C186.058 77.2599 185.583 76.3823 184.955 75.6235C184.328 74.8648 183.56 74.2397 182.697 73.7841C181.833 73.3284 180.89 73.0511 179.921 72.968C178.959 72.8875 177.995 72.8472 177.029 72.8474ZM511.91 82.8578C509.373 82.8578 507.13 84.1242 505.773 86.1746C504.674 87.7888 503.726 89.505 502.941 91.3004C502.466 92.2029 502.176 93.1949 502.089 94.2157C502.002 95.2366 502.119 96.2649 502.434 97.2377C502.749 98.2106 503.254 99.1077 503.92 99.8742C504.586 100.641 505.397 101.26 506.305 101.695C507.213 102.131 508.198 102.372 509.2 102.405C510.202 102.438 511.2 102.262 512.134 101.887C513.067 101.512 513.916 100.947 514.628 100.226C515.341 99.5049 515.902 98.6429 516.277 97.6927C516.728 96.6721 517.282 95.7021 517.929 94.7981C518.724 93.6698 519.197 92.3391 519.298 90.953C519.398 89.5668 519.122 88.1793 518.499 86.9437C517.876 85.7081 516.931 84.6726 515.768 83.9515C514.606 83.2304 513.27 82.8519 511.91 82.8578ZM531.088 96.969C529.132 96.969 527.256 97.7632 525.873 99.1768C524.489 100.59 523.712 102.508 523.712 104.507C523.712 106.506 524.489 108.424 525.873 109.837C527.256 111.251 529.132 112.045 531.088 112.045C533.045 112.045 534.921 111.251 536.304 109.837C537.688 108.424 538.465 106.506 538.465 104.507C538.465 102.508 537.688 100.59 536.304 99.1768C534.921 97.7632 533.045 96.969 531.088 96.969ZM177.561 96.969C176.592 96.9017 175.62 97.03 174.7 97.3466C173.779 97.6633 172.929 98.162 172.198 98.8144C171.466 99.4668 170.868 100.26 170.436 101.149C170.005 102.038 169.749 103.005 169.683 103.994C169.617 104.984 169.742 105.978 170.052 106.918C170.362 107.858 170.85 108.727 171.489 109.475C172.127 110.222 172.903 110.834 173.773 111.275C174.643 111.716 175.589 111.978 176.557 112.045C178.514 112.181 180.443 111.517 181.92 110.2C183.397 108.882 184.302 107.019 184.435 105.02C184.568 103.02 183.919 101.049 182.629 99.5393C181.34 98.0295 179.517 97.105 177.561 96.969ZM553.099 106.859C551.586 106.742 550.074 107.108 548.774 107.908C547.474 108.707 546.449 109.9 545.841 111.321C545.405 112.338 544.871 113.307 544.248 114.216C543.67 115.027 543.256 115.947 543.031 116.923C542.806 117.899 542.773 118.911 542.935 119.9C543.098 120.889 543.451 121.835 543.976 122.683C544.5 123.53 545.185 124.263 545.99 124.836C546.795 125.41 547.704 125.814 548.663 126.024C549.623 126.235 550.614 126.247 551.578 126.061C552.542 125.875 553.46 125.494 554.279 124.941C555.097 124.388 555.8 123.674 556.345 122.839C557.462 121.226 558.43 119.51 559.236 117.714C559.772 116.602 560.032 115.372 559.992 114.132C559.952 112.893 559.614 111.683 559.007 110.61C558.4 109.536 557.543 108.632 556.513 107.978C555.482 107.324 554.31 106.939 553.099 106.859ZM625.386 107.824C623.491 107.671 621.612 108.278 620.147 109.516C618.682 110.754 617.747 112.526 617.538 114.457C616.191 126.629 612.416 138.39 606.444 149.011C600.439 159.622 592.365 168.858 582.722 176.148C581.959 176.758 581.32 177.516 580.844 178.377C580.367 179.239 580.061 180.189 579.943 181.171C579.825 182.154 579.898 183.151 580.157 184.105C580.416 185.059 580.857 185.952 581.453 186.732C582.05 187.512 582.791 188.164 583.635 188.651C584.478 189.139 585.407 189.451 586.369 189.572C587.33 189.692 588.306 189.618 589.239 189.353C590.173 189.088 591.046 188.638 591.81 188.028C602.93 179.54 612.246 168.831 619.19 156.549C626.124 144.259 630.541 130.656 632.172 116.568C632.339 115.531 632.292 114.47 632.034 113.452C631.776 112.435 631.312 111.484 630.673 110.661C630.034 109.837 629.234 109.16 628.323 108.671C627.413 108.183 626.412 107.894 625.386 107.824ZM576.408 112.286C574.768 112.149 573.131 112.58 571.761 113.51C570.39 114.44 569.367 115.814 568.855 117.412C567.151 122.614 564.442 127.412 560.888 131.523C559.946 132.608 559.33 133.947 559.114 135.381C558.897 136.814 559.091 138.281 559.67 139.605C560.249 140.93 561.19 142.055 562.38 142.846C563.569 143.637 564.957 144.061 566.376 144.067C568.737 144.067 570.743 142.981 572.1 141.293C576.807 135.788 580.415 129.397 582.722 122.478C583.141 121.376 583.301 120.189 583.188 119.012C583.075 117.835 582.693 116.702 582.073 115.704C581.453 114.706 580.611 113.872 579.617 113.267C578.623 112.663 577.503 112.306 576.349 112.226L576.408 112.286ZM600.661 112.708C598.9 112.582 597.153 113.11 595.743 114.197C594.334 115.283 593.356 116.853 592.99 118.618C591.59 125.054 589.242 131.235 586.027 136.951C582.795 142.649 578.736 147.814 573.989 152.268C573.231 152.937 572.616 153.757 572.179 154.678C571.742 155.598 571.492 156.6 571.446 157.622C571.4 158.644 571.558 159.665 571.911 160.622C572.263 161.58 572.803 162.454 573.497 163.192C574.19 163.93 575.024 164.515 575.946 164.913C576.868 165.311 577.86 165.513 578.862 165.506C579.863 165.5 580.852 165.285 581.769 164.875C582.687 164.466 583.513 163.869 584.197 163.123C589.937 157.688 594.85 151.407 598.773 144.489C602.679 137.526 605.544 130.005 607.27 122.176C607.551 121.102 607.596 119.979 607.403 118.885C607.209 117.791 606.781 116.755 606.149 115.85C605.518 114.945 604.698 114.195 603.749 113.651C602.801 113.108 601.746 112.786 600.661 112.708ZM174.256 121.03C172.3 121.014 170.417 121.793 169.023 123.196C167.629 124.598 166.836 126.509 166.821 128.508C166.805 130.507 167.567 132.431 168.94 133.856C170.312 135.281 172.182 136.09 174.138 136.106C176.061 136.294 177.998 136.294 179.921 136.106C180.89 136.019 181.832 135.738 182.694 135.279C183.557 134.819 184.322 134.191 184.947 133.43C185.571 132.668 186.043 131.788 186.335 130.84C186.627 129.892 186.733 128.895 186.648 127.905C186.563 126.915 186.288 125.952 185.838 125.071C185.389 124.19 184.774 123.408 184.029 122.769C183.283 122.131 182.422 121.649 181.495 121.35C180.567 121.052 179.591 120.943 178.623 121.03C177.544 121.143 176.456 121.143 175.377 121.03C174.984 120.998 174.59 120.998 174.197 121.03H174.256ZM56.1183 123.865C54.5752 123.877 53.0748 124.384 51.8284 125.314C50.5819 126.243 49.6522 127.549 49.1701 129.047C48.6879 130.545 48.6777 132.16 49.1408 133.665C49.6039 135.169 50.517 136.487 51.7516 137.433C61.3727 144.729 69.4265 153.965 75.4146 164.57C81.3908 175.189 85.1669 186.951 86.5084 199.124C86.7823 201.107 87.8159 202.898 89.3818 204.103C90.9477 205.307 92.9177 205.826 94.8583 205.547C96.799 205.267 98.5513 204.21 99.7299 202.61C100.908 201.01 101.417 198.997 101.143 197.014C99.5111 182.925 95.0943 169.323 88.1607 157.032C81.2161 144.751 71.9006 134.041 60.7801 125.553C59.4495 124.441 57.7782 123.843 56.0593 123.865H56.1183ZM167.706 144.368C165.86 144.357 164.077 145.053 162.709 146.32C161.341 147.587 160.488 149.331 160.317 151.21C160.147 153.088 160.672 154.964 161.789 156.466C162.905 157.968 164.532 158.988 166.349 159.323C173.362 160.741 180.579 160.741 187.592 159.323C188.549 159.149 189.463 158.784 190.282 158.249C191.101 157.714 191.809 157.019 192.365 156.204C192.921 155.389 193.315 154.471 193.524 153.5C193.733 152.53 193.752 151.527 193.582 150.549C193.411 149.571 193.054 148.637 192.53 147.8C192.006 146.963 191.327 146.24 190.529 145.672C189.732 145.103 188.833 144.701 187.884 144.488C186.934 144.274 185.953 144.254 184.996 144.428C179.739 145.523 174.32 145.523 169.063 144.428C168.615 144.346 168.161 144.305 167.706 144.308V144.368ZM47.916 148.228C46.434 148.235 44.9886 148.699 43.7681 149.558C42.5477 150.417 41.6088 151.632 41.0738 153.044C40.5388 154.457 40.4325 156.001 40.7688 157.476C41.1051 158.951 41.8684 160.288 42.9592 161.314C47.6799 165.776 51.7516 170.962 54.9972 176.631C58.212 182.347 60.5597 188.528 61.9603 194.963C62.2809 196.443 63.0309 197.79 64.1122 198.828C65.1935 199.866 66.5559 200.547 68.0216 200.781C69.4872 201.016 70.988 200.793 72.328 200.143C73.6679 199.492 74.7847 198.443 75.5326 197.134C76.5358 195.325 76.7128 193.275 76.2997 191.345C74.5489 183.533 71.6649 176.033 67.7433 169.093C63.8243 162.153 58.9115 155.852 53.1679 150.398C52.4757 149.701 51.6553 149.15 50.754 148.777C49.8527 148.405 48.8882 148.218 47.916 148.228ZM155.019 166.138C153.305 166.317 151.706 167.103 150.5 168.361C149.294 169.619 148.557 171.268 148.417 173.024C148.276 174.779 148.742 176.529 149.732 177.969C150.723 179.41 152.175 180.452 153.839 180.912C161.348 183.298 169.166 184.518 177.029 184.531C184.878 184.531 192.667 183.325 200.161 180.912C201.091 180.635 201.959 180.174 202.714 179.554C203.469 178.934 204.098 178.168 204.564 177.3C205.029 176.432 205.323 175.479 205.429 174.495C205.534 173.511 205.448 172.516 205.177 171.565C204.906 170.615 204.454 169.728 203.848 168.957C203.241 168.185 202.492 167.542 201.643 167.066C200.793 166.59 199.861 166.29 198.898 166.182C197.935 166.075 196.961 166.162 196.031 166.439C189.883 168.421 183.476 169.437 177.029 169.455C170.563 169.443 164.136 168.427 157.969 166.439C157.016 166.136 156.012 166.033 155.019 166.138ZM35.4059 169.455C33.9866 169.46 32.5989 169.884 31.4093 170.675C30.2198 171.466 29.2789 172.592 28.6996 173.916C28.1203 175.24 27.927 176.707 28.1432 178.14C28.3593 179.574 28.9755 180.913 29.918 181.998C33.4754 186.106 36.185 190.905 37.8843 196.109C38.3406 197.474 39.1704 198.676 40.2752 199.573C41.3801 200.47 42.7135 201.025 44.1174 201.171C45.5213 201.317 46.9367 201.048 48.1958 200.397C49.4548 199.745 50.5046 198.739 51.2205 197.496C52.4007 195.446 52.5187 193.094 51.8106 191.043C49.486 184.12 45.8575 177.728 41.1298 172.229C40.4373 171.361 39.5642 170.661 38.5741 170.182C37.584 169.702 36.5017 169.453 35.4059 169.455ZM138.968 185.495C137.269 185.574 135.649 186.25 134.382 187.409C133.115 188.569 132.279 190.14 132.015 191.856C131.751 193.573 132.076 195.331 132.935 196.831C133.793 198.331 135.132 199.482 136.726 200.089C149.453 205.706 163.166 208.619 177.029 208.652C190.909 208.645 204.642 205.752 217.392 200.149C218.291 199.777 219.109 199.228 219.801 198.532C220.492 197.837 221.042 197.009 221.42 196.096C221.798 195.184 221.997 194.204 222.004 193.212C222.012 192.221 221.828 191.238 221.464 190.32C221.1 189.401 220.562 188.565 219.881 187.859C219.201 187.152 218.391 186.59 217.498 186.204C216.605 185.817 215.646 185.614 214.676 185.607C213.706 185.599 212.744 185.787 211.845 186.159C200.859 191.04 189.009 193.565 177.029 193.576C165.05 193.565 153.2 191.04 142.214 186.159C141.19 185.712 140.081 185.506 138.968 185.556V185.495ZM19.2372 187.305C17.8623 187.293 16.5118 187.675 15.3379 188.406C14.164 189.138 13.2135 190.19 12.5937 191.444C11.974 192.699 11.7095 194.105 11.8303 195.504C11.9511 196.904 12.4522 198.241 13.2772 199.365C13.8967 200.255 14.4303 201.204 14.8705 202.2C15.2812 203.099 15.8611 203.906 16.5772 204.576C17.2932 205.245 18.1313 205.765 19.0437 206.103C19.956 206.442 20.9247 206.594 21.8945 206.55C22.8642 206.506 23.8161 206.268 24.6956 205.848C25.5752 205.428 26.3652 204.836 27.0206 204.104C27.676 203.372 28.184 202.516 28.5155 201.583C28.847 200.651 28.9956 199.661 28.9527 198.67C28.9099 197.679 28.6764 196.706 28.2657 195.807C27.4411 194.008 26.4533 192.292 25.3152 190.682C24.6428 189.665 23.7377 188.831 22.6785 188.253C21.6192 187.675 20.438 187.37 19.2372 187.365V187.305ZM708.118 201.536C706.162 201.536 704.285 202.331 702.902 203.744C701.519 205.158 700.742 207.075 700.742 209.074C700.742 211.074 701.519 212.991 702.902 214.405C704.285 215.818 706.162 216.612 708.118 216.612V201.536ZM0 201.536V216.612C1.9563 216.612 3.83247 215.818 5.21578 214.405C6.59909 212.991 7.37623 211.074 7.37623 209.074C7.37623 207.075 6.59909 205.158 5.21578 203.744C3.83247 202.331 1.9563 201.536 0 201.536H0ZM531.088 209.496C517.229 209.51 503.517 212.403 490.785 217.999C489.866 218.353 489.026 218.891 488.314 219.581C487.601 220.27 487.03 221.099 486.635 222.017C486.24 222.935 486.028 223.924 486.011 224.927C485.995 225.93 486.175 226.927 486.54 227.858C486.905 228.789 487.448 229.636 488.138 230.35C488.828 231.063 489.65 231.629 490.556 232.014C491.463 232.399 492.435 232.595 493.417 232.591C494.398 232.587 495.369 232.382 496.273 231.99C507.258 227.107 519.109 224.582 531.088 224.573C543.067 224.573 554.928 227.166 565.904 232.05C566.807 232.418 567.772 232.601 568.744 232.589C569.716 232.576 570.676 232.367 571.569 231.975C572.462 231.583 573.271 231.015 573.95 230.304C574.628 229.593 575.163 228.752 575.523 227.829C575.883 226.906 576.062 225.92 576.05 224.927C576.037 223.934 575.833 222.953 575.45 222.04C575.066 221.127 574.51 220.301 573.814 219.607C573.118 218.914 572.295 218.368 571.392 217.999C558.656 212.424 544.944 209.552 531.088 209.557V209.496ZM686.048 211.426C684.843 211.516 683.677 211.907 682.654 212.565C681.632 213.223 680.783 214.128 680.182 215.2C679.582 216.273 679.249 217.479 679.212 218.714C679.175 219.948 679.435 221.173 679.97 222.281C680.774 224.079 681.742 225.795 682.862 227.407C683.407 228.241 684.109 228.955 684.927 229.509C685.746 230.062 686.664 230.442 687.629 230.628C688.593 230.814 689.584 230.802 690.543 230.592C691.503 230.381 692.411 229.977 693.216 229.404C694.021 228.83 694.706 228.098 695.23 227.25C695.755 226.403 696.109 225.457 696.271 224.468C696.433 223.479 696.401 222.466 696.175 221.49C695.95 220.514 695.536 219.594 694.959 218.783C694.314 217.877 693.761 216.908 693.306 215.889C692.692 214.473 691.665 213.285 690.367 212.487C689.068 211.688 687.56 211.318 686.048 211.426ZM613.761 212.391C612.74 212.469 611.746 212.764 610.843 213.256C609.939 213.748 609.146 214.427 608.513 215.249C607.88 216.072 607.422 217.02 607.168 218.033C606.913 219.046 606.867 220.103 607.034 221.135C608.649 235.219 613.046 248.821 619.957 261.117C626.91 273.375 636.225 284.064 647.338 292.535C648.879 293.767 650.836 294.322 652.779 294.079C654.721 293.836 656.489 292.814 657.694 291.239C658.899 289.663 659.443 287.663 659.205 285.678C658.967 283.694 657.967 281.887 656.425 280.655C646.783 273.365 638.709 264.129 632.703 253.518C626.739 242.915 622.964 231.176 621.609 219.025C621.387 217.1 620.447 215.337 618.985 214.101C617.524 212.866 615.653 212.254 613.761 212.391ZM662.798 216.793C661.644 216.874 660.525 217.231 659.53 217.835C658.536 218.439 657.695 219.274 657.074 220.272C656.454 221.27 656.072 222.403 655.959 223.579C655.846 224.756 656.006 225.943 656.425 227.045C658.732 233.964 662.341 240.356 667.047 245.86C667.657 246.669 668.421 247.344 669.294 247.842C670.167 248.34 671.129 248.652 672.124 248.759C673.118 248.865 674.123 248.764 675.078 248.461C676.033 248.159 676.917 247.661 677.678 246.998C678.439 246.335 679.06 245.521 679.503 244.605C679.946 243.69 680.203 242.692 680.257 241.672C680.312 240.651 680.163 239.631 679.819 238.671C679.476 237.712 678.945 236.834 678.259 236.091C674.705 231.98 671.996 227.181 670.293 221.979C669.785 220.387 668.772 219.013 667.415 218.074C666.058 217.135 664.434 216.684 662.798 216.793ZM638.486 217.276C637.401 217.354 636.347 217.676 635.398 218.219C634.449 218.762 633.63 219.513 632.998 220.418C632.366 221.322 631.938 222.359 631.745 223.452C631.551 224.546 631.596 225.67 631.877 226.743C633.604 234.573 636.468 242.094 640.375 249.056C644.313 255.998 649.246 262.3 655.009 267.75C656.044 268.799 657.36 269.51 658.79 269.795C660.22 270.08 661.701 269.926 663.046 269.352C664.39 268.778 665.538 267.81 666.345 266.569C667.152 265.329 667.581 263.872 667.578 262.383C667.578 260.212 666.693 258.162 665.218 256.835C655.653 247.845 649.003 236.084 646.158 223.125C645.779 221.355 644.79 219.784 643.37 218.698C641.95 217.613 640.196 217.087 638.427 217.215L638.486 217.276ZM120.97 228.372C119.2 228.372 117.548 228.975 116.249 230.06C105.129 238.548 95.8133 249.258 88.8688 261.539C81.9367 273.83 77.52 287.432 75.8866 301.521C75.751 302.503 75.806 303.502 76.0484 304.462C76.2909 305.423 76.716 306.325 77.2996 307.117C77.8832 307.91 78.6137 308.577 79.4496 309.081C80.2855 309.584 81.2103 309.915 82.1712 310.054C83.1321 310.192 84.1103 310.136 85.05 309.888C85.9896 309.641 86.8723 309.206 87.6477 308.61C88.4231 308.013 89.0759 307.267 89.5689 306.412C90.0619 305.558 90.3855 304.613 90.5211 303.631C91.8658 291.459 95.6417 279.698 101.615 269.077C107.619 258.466 115.693 249.229 125.337 241.94C126.571 240.994 127.485 239.676 127.948 238.172C128.411 236.667 128.401 235.052 127.918 233.554C127.436 232.056 126.507 230.751 125.26 229.821C124.014 228.891 122.513 228.384 120.97 228.372ZM531.088 233.618C523.24 233.618 515.451 234.824 507.957 237.236C507.027 237.514 506.159 237.975 505.404 238.595C504.649 239.215 504.02 239.98 503.554 240.848C503.089 241.716 502.795 242.67 502.689 243.654C502.584 244.638 502.67 245.633 502.941 246.584C503.212 247.534 503.664 248.42 504.27 249.192C504.877 249.964 505.626 250.606 506.475 251.082C507.325 251.558 508.257 251.859 509.22 251.966C510.183 252.074 511.157 251.987 512.087 251.709C518.235 249.727 524.642 248.71 531.088 248.694C537.58 248.694 543.953 249.78 550.09 251.709C551.51 252.172 553.034 252.185 554.461 251.745C555.889 251.305 557.152 250.433 558.085 249.245C559.018 248.056 559.576 246.607 559.687 245.088C559.798 243.568 559.455 242.05 558.705 240.734C557.723 239.007 556.11 237.749 554.22 237.236C546.73 234.857 538.933 233.637 531.088 233.618ZM129.113 252.674C127.107 252.674 125.219 253.518 123.921 254.905C118.156 260.355 113.223 266.656 109.286 273.6C105.384 280.543 102.519 288.043 100.789 295.852C100.556 296.814 100.512 297.814 100.657 298.794C100.803 299.773 101.136 300.714 101.637 301.563C102.138 302.411 102.798 303.15 103.579 303.738C104.36 304.326 105.247 304.75 106.188 304.988C107.13 305.226 108.108 305.271 109.067 305.123C110.025 304.974 110.946 304.634 111.776 304.121C112.607 303.609 113.33 302.934 113.905 302.136C114.48 301.338 114.896 300.432 115.128 299.47C116.528 293.034 118.876 286.853 122.091 281.138C125.319 275.419 129.378 270.234 134.129 265.76C135.224 264.731 135.988 263.389 136.323 261.908C136.657 260.427 136.546 258.878 136.004 257.463C135.462 256.048 134.513 254.834 133.284 253.979C132.054 253.124 130.601 252.67 129.113 252.674ZM531.088 257.74C527.548 257.74 523.948 258.102 520.467 258.825C518.956 259.064 517.554 259.777 516.457 260.866C515.36 261.954 514.621 263.364 514.342 264.901C514.064 266.437 514.259 268.024 514.902 269.442C515.544 270.86 516.602 272.039 517.929 272.816C519.582 273.781 521.411 274.022 523.122 273.66C528.379 272.565 533.798 272.565 539.055 273.66C540.008 273.842 540.987 273.831 541.936 273.626C542.885 273.422 543.785 273.028 544.585 272.468C545.385 271.908 546.069 271.193 546.598 270.363C547.128 269.532 547.492 268.604 547.67 267.63C547.848 266.656 547.837 265.655 547.637 264.686C547.437 263.716 547.052 262.796 546.504 261.979C545.956 261.161 545.256 260.462 544.443 259.921C543.631 259.38 542.722 259.007 541.769 258.825C538.252 258.107 534.675 257.743 531.088 257.74ZM141.683 274.022C139.381 274.022 137.316 275.047 136.018 276.736C131.304 282.258 127.696 288.67 125.396 295.611C125.002 296.556 124.801 297.574 124.806 298.601C124.811 299.629 125.022 300.644 125.425 301.586C125.828 302.527 126.415 303.374 127.15 304.075C127.885 304.776 128.753 305.316 129.7 305.662C130.647 306.008 131.653 306.152 132.656 306.086C133.659 306.02 134.639 305.745 135.534 305.278C136.43 304.812 137.223 304.162 137.864 303.371C138.505 302.58 138.981 301.663 139.263 300.676C140.96 295.453 143.669 290.634 147.23 286.505C148.175 285.416 148.793 284.071 149.007 282.632C149.221 281.193 149.022 279.722 148.436 278.395C147.849 277.069 146.899 275.944 145.701 275.157C144.503 274.371 143.107 273.955 141.683 273.962V274.022ZM531.088 281.801C530.144 281.801 529.141 281.801 528.197 281.982C527.221 282.055 526.269 282.325 525.397 282.777C524.524 283.229 523.748 283.854 523.115 284.615C522.481 285.377 522.001 286.259 521.704 287.212C521.407 288.164 521.299 289.168 521.385 290.164C521.471 291.159 521.75 292.128 522.206 293.012C522.661 293.897 523.285 294.68 524.04 295.316C524.794 295.952 525.666 296.428 526.602 296.717C527.539 297.006 528.522 297.101 529.495 296.998C530.574 296.889 531.661 296.889 532.741 296.998C533.709 297.081 534.685 296.968 535.611 296.666C536.537 296.364 537.396 295.879 538.138 295.238C538.88 294.596 539.492 293.812 539.938 292.929C540.384 292.047 540.655 291.083 540.737 290.093C540.818 289.103 540.708 288.106 540.412 287.16C540.117 286.214 539.642 285.336 539.014 284.577C538.387 283.819 537.619 283.193 536.756 282.738C535.892 282.282 534.949 282.005 533.98 281.922C533.018 281.837 532.054 281.796 531.088 281.801ZM157.851 291.872C155.314 291.872 153.13 293.199 151.714 295.189C150.618 296.805 149.67 298.52 148.882 300.314C148.407 301.217 148.117 302.209 148.03 303.23C147.943 304.251 148.06 305.279 148.375 306.252C148.69 307.225 149.195 308.122 149.861 308.888C150.527 309.655 151.338 310.274 152.246 310.71C153.154 311.145 154.139 311.386 155.141 311.419C156.143 311.452 157.142 311.276 158.075 310.901C159.008 310.526 159.857 309.961 160.569 309.24C161.282 308.519 161.843 307.657 162.218 306.707C162.672 305.688 163.226 304.718 163.87 303.812C164.665 302.684 165.138 301.353 165.239 299.967C165.339 298.581 165.063 297.193 164.44 295.958C163.817 294.722 162.872 293.687 161.709 292.966C160.547 292.245 159.211 291.866 157.851 291.872ZM177.029 306.043C175.073 306.043 173.197 306.838 171.814 308.251C170.43 309.665 169.653 311.582 169.653 313.581C169.653 315.581 170.43 317.498 171.814 318.912C173.197 320.325 175.073 321.119 177.029 321.119C178.986 321.119 180.862 320.325 182.245 318.912C183.629 317.498 184.406 315.581 184.406 313.581C184.406 311.582 183.629 309.665 182.245 308.251C180.862 306.838 178.986 306.043 177.029 306.043ZM531.62 306.043C529.663 305.907 527.734 306.571 526.257 307.889C524.779 309.206 523.875 311.07 523.742 313.069C523.609 315.068 524.258 317.039 525.547 318.549C526.837 320.059 528.66 320.983 530.616 321.119C531.585 321.187 532.557 321.058 533.477 320.742C534.397 320.425 535.248 319.926 535.979 319.274C536.711 318.622 537.309 317.828 537.741 316.94C538.172 316.051 538.428 315.084 538.494 314.094C538.56 313.104 538.434 312.111 538.125 311.17C537.815 310.23 537.327 309.361 536.688 308.614C536.05 307.866 535.274 307.254 534.404 306.813C533.534 306.372 532.588 306.111 531.62 306.043ZM199.04 315.933C197.537 315.829 196.038 316.202 194.75 317C193.461 317.799 192.445 318.985 191.841 320.396C191.386 321.415 190.833 322.384 190.189 323.29C189.611 324.101 189.197 325.021 188.972 325.997C188.747 326.973 188.714 327.986 188.876 328.975C189.039 329.964 189.392 330.91 189.917 331.757C190.441 332.605 191.126 333.337 191.931 333.911C192.736 334.484 193.645 334.888 194.604 335.099C195.564 335.309 196.555 335.321 197.519 335.135C198.483 334.949 199.402 334.569 200.22 334.016C201.039 333.462 201.741 332.748 202.286 331.914C203.418 330.3 204.406 328.584 205.236 326.788C205.774 325.672 206.033 324.436 205.99 323.193C205.947 321.949 205.603 320.736 204.99 319.661C204.376 318.586 203.512 317.683 202.474 317.032C201.435 316.382 200.256 316.004 199.04 315.933ZM271.327 316.838C269.433 316.702 267.561 317.325 266.107 318.574C264.654 319.823 263.732 321.601 263.538 323.532C262.175 335.709 258.379 347.47 252.385 358.086C246.397 368.69 238.343 377.927 228.722 385.223C227.959 385.832 227.32 386.59 226.844 387.452C226.367 388.314 226.061 389.263 225.943 390.246C225.825 391.229 225.898 392.225 226.157 393.179C226.416 394.134 226.857 395.026 227.453 395.806C228.05 396.586 228.791 397.238 229.635 397.726C230.478 398.213 231.407 398.526 232.369 398.646C233.33 398.767 234.306 398.692 235.239 398.427C236.173 398.163 237.046 397.712 237.81 397.103C248.93 388.615 258.246 377.905 265.19 365.624C272.122 353.333 276.539 339.73 278.172 325.642C278.349 324.596 278.307 323.524 278.049 322.495C277.792 321.467 277.325 320.505 276.678 319.674C276.032 318.843 275.221 318.161 274.299 317.672C273.377 317.183 272.364 316.899 271.327 316.838ZM222.349 321.3C220.702 321.166 219.059 321.606 217.688 322.548C216.316 323.489 215.297 324.878 214.796 326.486C213.094 331.689 210.384 336.488 206.829 340.598C206.144 341.341 205.613 342.219 205.269 343.178C204.926 344.138 204.777 345.159 204.831 346.179C204.885 347.199 205.142 348.197 205.585 349.112C206.029 350.028 206.65 350.842 207.411 351.505C208.171 352.168 209.056 352.666 210.011 352.968C210.965 353.271 211.97 353.372 212.965 353.266C213.959 353.159 214.922 352.848 215.794 352.349C216.667 351.851 217.432 351.176 218.041 350.367C222.753 344.866 226.362 338.474 228.663 331.552C229.082 330.45 229.242 329.263 229.129 328.086C229.016 326.91 228.634 325.777 228.014 324.779C227.394 323.781 226.552 322.946 225.558 322.342C224.564 321.738 223.444 321.381 222.29 321.3H222.349ZM246.661 321.783C244.9 321.656 243.153 322.185 241.744 323.271C240.334 324.357 239.356 325.927 238.99 327.693C237.553 334.135 235.165 340.317 231.909 346.025C228.695 351.719 224.656 356.884 219.93 361.342C218.839 362.367 218.076 363.705 217.739 365.18C217.403 366.655 217.509 368.199 218.044 369.612C218.579 371.024 219.518 372.239 220.739 373.098C221.959 373.957 223.404 374.421 224.886 374.428C226.952 374.428 228.781 373.584 230.138 372.257C235.881 366.803 240.794 360.502 244.714 353.563C248.667 346.568 251.5 339.09 253.27 331.25C253.551 330.177 253.597 329.053 253.403 327.959C253.209 326.866 252.781 325.829 252.149 324.925C251.518 324.02 250.698 323.269 249.749 322.726C248.801 322.183 247.746 321.861 246.661 321.783ZM528.315 330.044C527.346 330.036 526.386 330.224 525.488 330.595C524.59 330.967 523.772 331.515 523.082 332.21C522.391 332.904 521.842 333.731 521.464 334.642C521.086 335.554 520.888 336.532 520.88 337.522C520.872 338.512 521.055 339.494 521.419 340.411C521.782 341.329 522.319 342.164 522.998 342.87C523.678 343.576 524.487 344.137 525.379 344.524C526.271 344.91 527.228 345.113 528.197 345.12C530.12 345.307 532.057 345.307 533.98 345.12C534.949 345.033 535.891 344.752 536.753 344.293C537.616 343.833 538.381 343.205 539.006 342.444C539.63 341.682 540.102 340.802 540.394 339.854C540.686 338.906 540.792 337.909 540.707 336.919C540.622 335.929 540.347 334.966 539.897 334.085C539.448 333.204 538.833 332.422 538.088 331.783C537.342 331.145 536.481 330.663 535.554 330.364C534.626 330.066 533.65 329.957 532.682 330.044C531.603 330.157 530.515 330.157 529.436 330.044C529.043 330.012 528.649 330.012 528.256 330.044H528.315ZM410.177 332.879C408.619 332.874 407.099 333.374 405.836 334.307C404.573 335.24 403.631 336.558 403.147 338.071C402.662 339.585 402.658 341.216 403.137 342.732C403.615 344.247 404.551 345.569 405.811 346.507C415.41 353.81 423.444 363.045 429.414 373.644C435.415 384.24 439.231 395.979 440.626 408.138C440.702 409.167 440.984 410.168 441.454 411.081C441.924 411.993 442.573 412.798 443.359 413.444C444.146 414.09 445.053 414.565 446.027 414.838C447 415.112 448.017 415.178 449.016 415.033C450.016 414.889 450.975 414.536 451.836 413.997C452.696 413.458 453.439 412.745 454.019 411.9C454.599 411.056 455.003 410.099 455.206 409.089C455.41 408.079 455.408 407.037 455.202 406.028C453.57 391.939 449.153 378.337 442.22 366.046C435.269 353.787 425.953 343.098 414.839 334.628C413.517 333.494 411.844 332.874 410.118 332.879H410.177ZM521.765 353.382C519.919 353.371 518.136 354.067 516.768 355.334C515.4 356.601 514.547 358.346 514.376 360.224C514.206 362.102 514.731 363.978 515.847 365.48C516.964 366.982 518.591 368.002 520.408 368.338C527.421 369.753 534.638 369.753 541.651 368.338C542.626 368.188 543.562 367.84 544.403 367.314C545.244 366.788 545.973 366.096 546.548 365.277C547.122 364.458 547.531 363.53 547.748 362.548C547.966 361.565 547.989 360.548 547.815 359.556C547.642 358.564 547.275 357.618 546.738 356.774C546.2 355.929 545.503 355.203 544.686 354.639C543.869 354.074 542.95 353.683 541.983 353.488C541.016 353.293 540.02 353.298 539.055 353.503C533.798 354.598 528.379 354.598 523.122 353.503C522.676 353.4 522.222 353.339 521.765 353.322V353.382ZM401.975 357.242C400.488 357.237 399.034 357.692 397.805 358.546C396.575 359.401 395.627 360.615 395.085 362.03C394.542 363.445 394.431 364.995 394.766 366.475C395.1 367.956 395.865 369.299 396.959 370.328C401.68 374.79 405.811 379.976 408.997 385.645C412.239 391.375 414.607 397.578 416.019 404.038C416.34 405.518 417.09 406.865 418.171 407.903C419.252 408.941 420.615 409.621 422.081 409.856C423.546 410.09 425.047 409.868 426.387 409.217C427.727 408.566 428.844 407.518 429.592 406.208C430.595 404.399 430.772 402.349 430.359 400.48C428.613 392.647 425.729 385.126 421.802 378.167C417.883 371.228 412.97 364.927 407.227 359.473C406.535 358.775 405.714 358.224 404.813 357.852C403.912 357.479 402.947 357.292 401.975 357.302V357.242ZM509.078 375.152C507.364 375.331 505.765 376.117 504.559 377.375C503.353 378.633 502.616 380.282 502.475 382.038C502.335 383.793 502.801 385.543 503.791 386.984C504.782 388.425 506.234 389.466 507.898 389.926C515.407 392.313 523.224 393.533 531.088 393.545C538.937 393.545 546.726 392.339 554.161 389.926C556.039 389.367 557.623 388.067 558.564 386.314C559.504 384.561 559.725 382.499 559.177 380.579C558.629 378.66 557.358 377.042 555.643 376.08C553.927 375.119 551.909 374.894 550.031 375.453C543.883 377.435 537.476 378.451 531.029 378.469C524.597 378.469 518.165 377.443 512.028 375.453C511.075 375.15 510.071 375.047 509.078 375.152ZM389.465 378.529C388.046 378.534 386.658 378.958 385.468 379.749C384.279 380.541 383.338 381.666 382.759 382.99C382.179 384.314 381.986 385.781 382.202 387.215C382.418 388.648 383.034 389.988 383.977 391.072C387.532 395.182 390.241 399.981 391.943 405.183C392.4 406.548 393.229 407.75 394.334 408.647C395.439 409.545 396.772 410.099 398.176 410.245C399.58 410.391 400.996 410.122 402.255 409.471C403.514 408.82 404.564 407.813 405.28 406.57C406.46 404.58 406.578 402.228 405.87 400.178C403.556 393.231 399.927 386.817 395.189 381.303C394.496 380.435 393.623 379.736 392.633 379.256C391.643 378.776 390.561 378.528 389.465 378.529ZM493.027 394.57C491.328 394.648 489.708 395.325 488.441 396.484C487.174 397.643 486.338 399.214 486.074 400.931C485.81 402.648 486.135 404.405 486.993 405.905C487.852 407.405 489.191 408.556 490.785 409.163C503.517 414.759 517.229 417.652 531.088 417.666C544.968 417.66 558.701 414.767 571.451 409.163C572.35 408.791 573.168 408.242 573.86 407.546C574.551 406.851 575.101 406.023 575.479 405.11C575.857 404.198 576.056 403.218 576.063 402.227C576.071 401.235 575.887 400.252 575.523 399.334C575.159 398.415 574.621 397.579 573.94 396.873C573.26 396.166 572.45 395.604 571.557 395.218C570.664 394.831 569.705 394.628 568.735 394.621C567.765 394.613 566.803 394.801 565.904 395.173C554.919 400.056 543.068 402.581 531.088 402.59C519.168 402.59 507.249 400.057 496.332 395.173C495.29 394.717 494.159 394.511 493.027 394.57ZM373.296 396.439C371.941 396.444 370.614 396.831 369.459 397.556C368.305 398.282 367.369 399.318 366.753 400.552C366.137 401.786 365.866 403.169 365.969 404.549C366.072 405.93 366.545 407.255 367.336 408.379C367.957 409.289 368.491 410.259 368.929 411.274C369.477 412.554 370.362 413.652 371.485 414.448C372.609 415.244 373.926 415.705 375.291 415.78C376.656 415.855 378.014 415.541 379.214 414.873C380.414 414.205 381.41 413.21 382.089 411.998C383.328 409.706 383.328 407.053 382.325 404.882C381.494 403.105 380.507 401.409 379.374 399.816C378.708 398.788 377.806 397.943 376.747 397.354C375.687 396.766 374.502 396.451 373.296 396.439ZM353.587 410.55C351.714 410.688 349.963 411.551 348.691 412.963C347.419 414.375 346.722 416.23 346.742 418.149H361.494C361.505 417.106 361.304 416.073 360.904 415.114C360.505 414.155 359.914 413.291 359.171 412.577C358.428 411.863 357.548 411.314 356.587 410.965C355.626 410.617 354.604 410.475 353.587 410.55Z" fill="url(#paint0_linear_2270_4080)" fill-opacity="0.3"/>
<defs>
<linearGradient id="paint0_linear_2270_4080" x1="354.059" y1="0" x2="354.059" y2="418.149" gradientUnits="userSpaceOnUse">
<stop stop-color="#54ADFF"/>
<stop offset="0.786458" stop-color="#C23264"/>
</linearGradient>
</defs>
</svg>
