<svg width="360" height="419" viewBox="0 0 360 419" fill="none" xmlns="http://www.w3.org/2000/svg">
<path d="M110.643 0C110.643 1.99921 111.421 3.91653 112.804 5.33018C114.187 6.74383 116.063 7.53801 118.02 7.53801C119.976 7.53801 121.852 6.74383 123.235 5.33018C124.619 3.91653 125.396 1.99921 125.396 0H110.643ZM582.722 0C582.722 1.99921 583.499 3.91653 584.883 5.33018C586.266 6.74383 588.142 7.53801 590.098 7.53801C592.055 7.53801 593.931 6.74383 595.314 5.33018C596.697 3.91653 597.474 1.99921 597.474 0H582.722ZM413.777 0.422129C395.676 0.268264 377.865 5.07881 362.202 14.3524C346.745 23.5216 333.909 36.6705 324.974 52.4889C316.039 68.3072 311.316 86.2424 311.277 104.507C311.261 120.734 314.961 136.739 322.083 151.242C329.204 165.745 339.549 178.343 352.289 188.028C353.052 188.638 353.925 189.088 354.859 189.353C355.792 189.618 356.768 189.692 357.73 189.572C358.691 189.451 359.62 189.139 360.464 188.651C361.307 188.164 362.048 187.512 362.645 186.732C363.242 185.952 363.682 185.059 363.941 184.105C364.2 183.151 364.273 182.154 364.155 181.171C364.038 180.189 363.732 179.239 363.255 178.377C362.778 177.516 362.139 176.758 361.376 176.148C350.401 167.875 341.483 157.08 335.343 144.635C329.203 132.19 326.013 118.444 326.029 104.507C326.062 88.8985 330.093 73.5708 337.724 60.0495C345.354 46.5281 356.316 35.2847 369.52 27.4384C381.322 20.4612 394.567 16.4215 408.181 15.6462C421.795 14.871 435.396 17.3819 447.885 22.9759C449.314 23.6193 450.906 23.7826 452.432 23.4421C453.957 23.1017 455.338 22.2752 456.375 21.0816C457.412 19.8881 458.051 18.389 458.201 16.8004C458.35 15.2118 458.003 13.6156 457.208 12.2417C456.338 10.7341 454.982 9.58283 453.373 8.98531C440.882 3.47312 427.441 0.561956 413.836 0.422129H413.777ZM58.3017 0.422129C44.6729 0.572994 31.2109 3.50487 18.7061 9.04562C17.6959 9.32088 16.7546 9.81245 15.9444 10.4877C15.1342 11.163 14.4738 12.0066 14.0069 12.9625C13.5399 13.9185 13.2772 14.9649 13.236 16.0325C13.1949 17.1001 13.3763 18.1644 13.7682 19.1549C14.1601 20.1454 14.7536 21.0394 15.5092 21.7777C16.2649 22.516 17.1656 23.0818 18.1514 23.4374C19.1373 23.793 20.1859 23.9304 21.2276 23.8404C22.2694 23.7504 23.2805 23.4352 24.194 22.9156C36.6744 17.3316 50.265 14.826 63.8679 15.6012C77.4709 16.3764 90.7047 20.4106 102.5 27.3781C115.714 35.2169 126.689 46.4569 134.329 59.9788C141.97 73.5006 146.011 88.8323 146.049 104.447C146.066 118.384 142.876 132.13 136.735 144.575C130.595 157.02 121.678 167.815 110.702 176.088C109.939 176.698 109.301 177.455 108.824 178.317C108.347 179.179 108.041 180.128 107.923 181.111C107.805 182.094 107.878 183.091 108.137 184.045C108.397 184.999 108.837 185.891 109.434 186.671C110.03 187.451 110.772 188.104 111.615 188.591C112.458 189.078 113.387 189.391 114.349 189.512C115.311 189.632 116.286 189.558 117.22 189.293C118.153 189.028 119.027 188.578 119.79 187.968C132.53 178.283 142.874 165.685 149.996 151.182C157.117 136.679 160.818 120.673 160.802 104.447C160.732 86.2128 155.995 68.3149 147.061 52.5311C138.127 36.7472 125.308 23.6267 109.876 14.473C94.2249 5.15727 76.4139 0.30487 58.3017 0.422129ZM568.029 2.41216C566.823 2.50196 565.658 2.89313 564.635 3.55126C563.612 4.20939 562.763 5.11431 562.163 6.18642C561.562 7.25853 561.229 8.46497 561.192 9.69962C561.155 10.9343 561.416 12.1593 561.951 13.2669C564.609 19.2374 569.024 24.2122 574.579 27.4987C579.292 30.2656 584.633 31.7217 590.069 31.7217C595.505 31.7217 600.845 30.2656 605.559 27.4987C611.136 24.222 615.572 19.2462 618.246 13.2669C619.075 11.4516 619.165 9.37396 618.496 7.49098C617.826 5.60799 616.452 4.07393 614.676 3.22627C612.9 2.37861 610.866 2.28678 609.024 2.97099C607.181 3.65519 605.68 5.05939 604.851 6.87467C603.539 9.74137 601.454 12.1663 598.841 13.8652C596.228 15.564 593.195 16.4664 590.098 16.4664C587.001 16.4664 583.969 15.564 581.356 13.8652C578.743 12.1663 576.658 9.74137 575.346 6.87467C574.728 5.44865 573.692 4.25366 572.382 3.45442C571.071 2.65517 569.55 2.29102 568.029 2.41216ZM495.742 3.25642C494.71 3.32556 493.703 3.61569 492.788 4.10799C491.873 4.60028 491.069 5.28373 490.43 6.11398C489.79 6.94423 489.328 7.90271 489.074 8.92722C488.82 9.95173 488.779 11.0194 488.955 12.0608C490.777 28.181 496.268 43.6412 504.989 57.2024C513.709 70.7637 525.416 82.0492 539.173 90.1546C554.657 99.2553 572.207 104.045 590.069 104.045C607.931 104.045 625.481 99.2553 640.965 90.1546C654.721 82.0492 666.428 70.7637 675.149 57.2024C683.869 43.6412 689.36 28.181 691.182 12.0608C691.389 11.0513 691.39 10.0092 691.187 8.99907C690.983 7.98891 690.579 7.03216 689.999 6.18801C689.42 5.34386 688.677 4.63028 687.816 4.0914C686.956 3.55253 685.996 3.19984 684.997 3.05514C683.998 2.91045 682.98 2.97683 682.007 3.25019C681.034 3.52354 680.126 3.99805 679.339 4.64436C678.553 5.29067 677.905 6.09502 677.435 7.00766C676.965 7.92029 676.683 8.92178 676.607 9.95018C675.087 23.801 670.402 37.0926 662.93 48.7518C655.457 60.411 645.406 70.111 633.589 77.0687C620.347 84.8461 605.341 88.9391 590.069 88.9391C574.796 88.9391 559.79 84.8461 546.549 77.0687C534.743 70.104 524.703 60.4009 517.241 48.7422C509.779 37.0834 505.103 23.7954 503.59 9.95018C503.367 8.02541 502.427 6.2623 500.966 5.02703C499.504 3.79176 497.633 3.17926 495.742 3.31673V3.25642ZM544.779 7.71893C543.625 7.79938 542.505 8.15615 541.511 8.7604C540.516 9.36465 539.675 10.1994 539.055 11.1973C538.434 12.1952 538.052 13.3283 537.94 14.5049C537.827 15.6815 537.987 16.8687 538.406 17.9706C542.664 30.7505 551.326 41.5107 562.777 48.2433C571.08 53.1215 580.491 55.6887 590.069 55.6887C599.647 55.6887 609.057 53.1215 617.361 48.2433C628.834 41.4812 637.499 30.6748 641.732 17.85C642.145 16.8998 642.362 15.8725 642.367 14.8327C642.373 13.7929 642.169 12.763 641.766 11.808C641.364 10.8529 640.773 9.99323 640.029 9.28301C639.286 8.5728 638.407 8.0274 637.448 7.6811C636.488 7.33481 635.469 7.19511 634.454 7.2708C633.44 7.34648 632.451 7.63591 631.551 8.12089C630.651 8.60587 629.859 9.2759 629.224 10.0889C628.59 10.9018 628.127 11.8401 627.865 12.8448C624.779 22.2685 618.417 30.2076 609.985 35.1573C603.926 38.7182 597.058 40.5922 590.069 40.5922C583.079 40.5922 576.212 38.7182 570.153 35.1573C561.721 30.2076 555.359 22.2685 552.273 12.8448C551.765 11.2523 550.753 9.8781 549.396 8.93899C548.039 7.99988 546.414 7.54938 544.779 7.65862V7.71893ZM520.467 8.20136C519.382 8.27918 518.327 8.60121 517.378 9.14437C516.43 9.68754 515.61 10.4384 514.978 11.3432C514.347 12.248 513.919 13.2843 513.725 14.3779C513.531 15.4716 513.577 16.5955 513.858 17.6691C516.229 28.423 520.758 38.5573 527.156 47.4319C533.555 56.3065 541.686 63.7286 551.034 69.2291C562.922 76.2015 576.391 79.8703 590.098 79.8703C603.806 79.8703 617.274 76.2015 629.163 69.2291C638.511 63.7286 646.641 56.3065 653.04 47.4319C659.439 38.5573 663.967 28.423 666.339 17.6691C666.808 15.7259 666.503 13.6716 665.491 11.9583C664.478 10.2449 662.841 9.01284 660.94 8.53303C659.038 8.05322 657.028 8.36501 655.351 9.3998C653.675 10.4346 652.469 12.1076 652 14.0509C650.1 22.8266 646.433 31.1017 641.231 38.3488C636.029 45.5959 629.407 51.6561 621.787 56.1431C612.137 61.8152 601.201 64.8004 590.069 64.8004C578.937 64.8004 568 61.8152 558.351 56.1431C550.737 51.6627 544.119 45.6119 538.917 38.3756C533.716 31.1394 530.045 22.876 528.138 14.1112C527.761 12.3521 526.78 10.7891 525.373 9.70504C523.966 8.62102 522.225 8.08761 520.467 8.20136ZM705.167 19.2973C703.609 19.2928 702.089 19.7928 700.826 20.7257C699.563 21.6585 698.622 22.9761 698.137 24.4896C697.652 26.0032 697.648 27.6347 698.127 29.1504C698.606 30.666 699.542 31.9877 700.801 32.926C703.338 34.8558 705.817 36.9061 708.118 39.1374V19.9004C707.233 19.4782 706.23 19.237 705.167 19.237V19.2973ZM238.99 19.2973C237.22 19.2973 235.567 19.9004 234.269 21.0461C221.537 30.7252 211.198 43.3137 204.076 57.8055C196.955 72.2973 193.25 88.2906 193.257 104.507C193.29 122.766 198.004 140.697 206.929 156.515C215.853 172.333 228.677 185.485 244.124 194.662C257.858 202.788 273.264 207.512 289.107 208.454C304.95 209.397 320.789 206.532 335.353 200.089C336.252 199.717 337.07 199.167 337.761 198.472C338.452 197.777 339.003 196.949 339.381 196.036C339.759 195.123 339.957 194.143 339.965 193.152C339.972 192.161 339.789 191.178 339.425 190.259C339.06 189.341 338.523 188.505 337.842 187.798C337.162 187.092 336.352 186.53 335.458 186.143C334.565 185.757 333.606 185.554 332.637 185.546C331.667 185.539 330.705 185.726 329.806 186.098C317.321 191.673 303.728 194.169 290.125 193.383C276.522 192.598 263.291 188.553 251.5 181.576C238.296 173.729 227.334 162.486 219.704 148.965C212.074 135.443 208.042 120.116 208.01 104.507C208.002 90.58 211.197 76.846 217.337 64.4124C223.477 51.9788 232.389 41.1935 243.357 32.926C244.62 31.9848 245.558 30.6575 246.035 29.136C246.513 27.6144 246.504 25.9772 246.012 24.4607C245.52 22.9441 244.568 21.6268 243.295 20.6987C242.023 19.7706 240.494 19.2799 238.931 19.2973H238.99ZM0 19.9607V39.1977C8.85145 47.5253 15.9135 57.6414 20.7386 68.9045C25.5636 80.1677 28.0464 92.3324 28.0297 104.628C28.0297 129.654 17.5849 153.353 0 170.058V189.476C13.2086 179.818 23.9777 167.085 31.4171 152.331C38.8564 137.577 42.7521 121.225 42.7821 104.628C42.7984 88.401 39.0977 72.3958 31.9762 57.8928C24.8547 43.3897 14.5101 30.7916 1.77029 21.1064C1.23291 20.6616 0.636974 20.2962 0 20.021L0 19.9607ZM412.892 24.6041C399.217 24.5984 385.782 28.2802 373.945 35.2779C362.084 42.3252 352.237 52.4248 345.383 64.5709C338.529 76.7171 334.908 90.4861 334.881 104.507C334.869 115.527 337.091 126.43 341.408 136.529C345.724 146.628 352.041 155.703 359.96 163.183C360.991 164.228 362.302 164.938 363.726 165.225C365.151 165.512 366.627 165.363 367.97 164.796C369.312 164.23 370.46 163.271 371.272 162.04C372.083 160.809 372.52 159.36 372.529 157.876C372.529 155.645 371.644 153.655 370.169 152.328C363.682 146.253 358.506 138.862 354.97 130.629C351.435 122.395 349.617 113.499 349.633 104.507C349.66 93.1363 352.599 81.9708 358.158 72.1212C363.718 62.2715 371.703 54.0808 381.322 48.3639C388.925 43.8544 397.366 41.0156 406.104 40.0292C414.843 39.0427 423.686 39.9303 432.07 42.635C433.948 43.1948 435.967 42.9692 437.682 42.0079C439.397 41.0467 440.669 39.4284 441.216 37.5092C441.764 35.5899 441.544 33.5269 440.603 31.774C439.662 30.0211 438.079 28.7218 436.201 28.162C428.654 25.7634 420.795 24.5436 412.892 24.5438V24.6041ZM59.1869 24.6041C51.2833 24.6039 43.425 25.8237 35.878 28.2223C34.9481 28.4995 34.0807 28.9611 33.3253 29.5809C32.57 30.2006 31.9415 30.9663 31.4757 31.8343C31.01 32.7023 30.7161 33.6555 30.6108 34.6395C30.5055 35.6236 30.5909 36.6192 30.8621 37.5695C31.1334 38.5198 31.5851 39.4062 32.1915 40.1781C32.798 40.95 33.5473 41.5923 34.3966 42.0682C35.2459 42.5442 36.1787 42.8446 37.1416 42.9522C38.1045 43.0598 39.0788 42.9725 40.0087 42.6953C48.3882 39.9816 57.2296 39.084 65.9679 40.0601C74.7061 41.0362 83.149 43.8643 90.7571 48.3639C100.384 54.086 108.375 62.2861 113.935 72.1473C119.495 82.0085 122.429 93.1864 122.445 104.567C122.453 113.549 120.632 122.434 117.096 130.656C113.561 138.879 108.389 146.26 101.91 152.328C101.153 152.998 100.537 153.817 100.1 154.738C99.6629 155.658 99.4137 156.66 99.3677 157.682C99.3217 158.704 99.4797 159.725 99.8322 160.683C100.185 161.64 100.724 162.515 101.418 163.252C102.112 163.99 102.945 164.576 103.867 164.973C104.79 165.371 105.782 165.573 106.783 165.567C107.784 165.56 108.773 165.345 109.691 164.936C110.608 164.526 111.434 163.93 112.119 163.183C120.038 155.703 126.354 146.628 130.671 136.529C134.987 126.43 137.21 115.527 137.198 104.507C137.164 90.4802 133.535 76.7072 126.67 64.5606C119.806 52.4139 109.946 42.3176 98.0743 35.2779C86.2776 28.2796 72.8862 24.5776 59.2459 24.5438L59.1869 24.6041ZM696.965 43.6602C695.483 43.6677 694.038 44.1313 692.817 44.9904C691.597 45.8496 690.658 47.0645 690.123 48.4769C689.588 49.8893 689.482 51.4336 689.818 52.9086C690.154 54.3836 690.917 55.7209 692.008 56.7462C699.091 63.4168 704.6 71.6441 708.118 80.8075V52.1028C706.261 49.9256 704.292 47.8521 702.217 45.8914C701.53 45.1828 700.711 44.6207 699.81 44.2377C698.908 43.8547 697.941 43.6584 696.965 43.6602ZM247.133 43.6602C245.127 43.6602 243.239 44.5044 241.94 45.8914C234.029 53.3645 227.716 62.4301 223.4 72.5179C219.084 82.6056 216.858 93.4971 216.861 104.507C216.878 118.538 220.494 132.32 227.348 144.477C234.203 156.635 244.056 166.744 255.926 173.796C265.255 179.322 275.606 182.807 286.322 184.032C297.039 185.257 307.887 184.195 318.181 180.912C319.606 180.536 320.889 179.733 321.864 178.606C322.838 177.479 323.461 176.08 323.651 174.589C323.842 173.097 323.591 171.581 322.932 170.237C322.272 168.892 321.234 167.779 319.951 167.042C319.062 166.53 318.078 166.212 317.063 166.108C316.047 166.004 315.021 166.117 314.05 166.439C305.667 169.144 296.823 170.032 288.085 169.045C279.346 168.059 270.906 165.22 263.302 160.71C253.675 154.988 245.684 146.788 240.124 136.927C234.564 127.066 231.63 115.888 231.614 104.507C231.606 95.5255 233.427 86.6407 236.963 78.418C240.498 70.1953 245.67 62.8147 252.149 56.7462C253.243 55.7174 254.008 54.3746 254.343 52.8939C254.677 51.4133 254.566 49.8638 254.024 48.4489C253.481 47.0339 252.533 45.8195 251.303 44.965C250.074 44.1104 248.62 43.6556 247.133 43.6602ZM414.131 48.7257C404.198 48.5227 394.4 51.1092 385.806 56.2034C377.524 61.1183 370.644 68.1629 365.851 76.6369C361.058 85.1109 358.518 94.7193 358.485 104.507C358.485 118.618 363.56 131.523 371.998 141.293C372.608 142.102 373.372 142.777 374.245 143.275C375.118 143.773 376.08 144.085 377.075 144.191C378.069 144.298 379.074 144.197 380.029 143.894C380.983 143.591 381.868 143.093 382.629 142.431C383.389 141.768 384.01 140.954 384.454 140.038C384.897 139.123 385.154 138.124 385.208 137.104C385.263 136.084 385.114 135.063 384.77 134.104C384.426 133.145 383.896 132.267 383.21 131.523C376.736 124.081 373.165 114.465 373.178 104.507C373.178 90.034 380.849 76.5259 393.124 69.2894C401.553 64.2888 411.489 62.6358 421.035 64.646C421.988 64.8242 422.966 64.8088 423.914 64.6006C424.861 64.3925 425.759 63.9957 426.556 63.4329C427.354 62.8702 428.035 62.1524 428.56 61.3207C429.086 60.4889 429.447 59.5595 429.621 58.5854C429.795 57.6114 429.78 56.6118 429.577 55.6436C429.373 54.6755 428.985 53.7579 428.434 52.9431C427.883 52.1284 427.181 51.4324 426.367 50.8951C425.553 50.3577 424.644 49.9894 423.691 49.8112C420.542 49.1601 417.343 48.7968 414.131 48.7257ZM57.8886 48.7257C54.7021 48.786 51.5156 49.1479 48.3881 49.8112C47.4349 49.9894 46.5254 50.3577 45.7115 50.8951C44.8976 51.4324 44.1953 52.1284 43.6446 52.9431C43.0939 53.7579 42.7056 54.6755 42.502 55.6436C42.2983 56.6118 42.2832 57.6114 42.4576 58.5854C42.6319 59.5595 42.9923 60.4889 43.5182 61.3207C44.044 62.1524 44.725 62.8702 45.5223 63.4329C46.3196 63.9957 47.2175 64.3925 48.1648 64.6006C49.1122 64.8088 50.0903 64.8242 51.0435 64.646C60.5708 62.6511 70.4832 64.3037 78.8961 69.2894C84.9485 72.8745 89.9753 78.0186 93.475 84.2086C96.9747 90.3987 98.8251 97.4184 98.8415 104.567C98.8415 114.879 95.0648 124.347 88.8098 131.584C87.8673 132.668 87.2511 134.008 87.035 135.441C86.8189 136.875 87.0121 138.342 87.5914 139.666C88.1707 140.99 89.1116 142.115 90.3012 142.906C91.4907 143.698 92.8784 144.121 94.2977 144.127C96.6581 144.127 98.7234 143.041 100.022 141.293C108.778 131.129 113.604 118.049 113.594 104.507C113.56 94.7193 111.021 85.1109 106.228 76.6369C101.435 68.1629 94.555 61.1183 86.2724 56.2034C77.6782 51.1092 67.8809 48.5227 57.9477 48.7257H57.8886ZM0 52.1028V80.6869C5.92858 95.9891 5.92858 113.025 0 128.327L0 156.972C12.354 142.407 19.1621 123.782 19.1782 104.507C19.1868 85.2636 12.3738 66.6685 0 52.1631L0 52.1028ZM684.396 64.9475C682.977 64.9529 681.589 65.3767 680.399 66.168C679.21 66.9593 678.269 68.0845 677.69 69.4087C677.11 70.7328 676.917 72.1997 677.133 73.6332C677.349 75.0668 677.966 76.4062 678.908 77.4908C685.382 84.9335 688.952 94.5489 688.94 104.507C688.94 118.98 681.268 132.548 668.994 139.785C660.581 144.771 650.669 146.423 641.142 144.428C640.189 144.246 639.21 144.258 638.261 144.462C637.312 144.667 636.412 145.06 635.612 145.62C634.812 146.18 634.128 146.896 633.598 147.726C633.069 148.556 632.705 149.485 632.526 150.459C632.348 151.433 632.359 152.433 632.559 153.403C632.76 154.372 633.145 155.292 633.693 156.11C634.24 156.927 634.941 157.627 635.753 158.168C636.565 158.709 637.474 159.081 638.427 159.263C650.996 161.796 664.451 159.866 676.371 152.871C684.662 147.951 691.547 140.897 696.341 132.411C701.134 123.926 703.669 114.305 703.692 104.507C703.692 90.4562 698.558 77.5511 690.12 67.7215C689.434 66.8615 688.57 66.167 687.591 65.6875C686.612 65.2079 685.541 64.9553 684.455 64.9475H684.396ZM259.702 64.9475C257.401 64.9475 255.336 66.033 254.037 67.7215C245.281 77.8852 240.455 90.9653 240.465 104.507C240.482 114.299 243.008 123.916 247.791 132.401C252.574 140.886 259.447 147.943 267.728 152.871C279.189 159.661 292.684 161.935 305.671 159.263C306.624 159.085 307.534 158.717 308.347 158.179C309.161 157.642 309.864 156.946 310.414 156.131C310.965 155.316 311.353 154.399 311.557 153.431C311.761 152.463 311.776 151.463 311.601 150.489C311.427 149.515 311.067 148.585 310.541 147.754C310.015 146.922 309.334 146.204 308.537 145.641C307.739 145.079 306.841 144.682 305.894 144.474C304.947 144.266 303.969 144.25 303.015 144.428C293.469 146.439 283.533 144.786 275.104 139.785C269.062 136.192 264.047 131.045 260.558 124.855C257.069 118.666 255.228 111.65 255.218 104.507C255.218 94.195 258.994 84.7273 265.249 77.4908C266.195 76.4024 266.812 75.0574 267.026 73.6183C267.24 72.1793 267.042 70.7076 266.456 69.3812C265.869 68.0547 264.919 66.9302 263.721 66.1434C262.522 65.3567 261.127 64.9413 259.702 64.9475ZM413.659 72.8474C408.171 72.7268 402.624 74.0535 397.608 77.0687C392.902 79.8593 388.993 83.8606 386.271 88.6744C383.548 93.4883 382.106 98.9469 382.089 104.507C382.064 111.071 384.044 117.48 387.754 122.839C388.873 124.487 390.586 125.612 392.517 125.969C394.448 126.325 396.439 125.883 398.051 124.739C399.663 123.596 400.764 121.844 401.113 119.871C401.461 117.897 401.029 115.863 399.91 114.216C398.58 112.332 397.651 110.185 397.182 107.912C396.713 105.639 396.715 103.291 397.188 101.019C397.66 98.7474 398.592 96.6016 399.925 94.72C401.258 92.8385 402.961 91.2628 404.925 90.0943C407.873 88.362 411.28 87.6235 414.662 87.9837C415.635 88.0871 416.619 87.9917 417.555 87.703C418.492 87.4143 419.363 86.938 420.118 86.302C420.872 85.666 421.496 84.883 421.952 83.9984C422.407 83.1138 422.687 82.1454 422.773 81.1495C422.859 80.1537 422.75 79.1503 422.453 78.1977C422.156 77.2452 421.677 76.3625 421.043 75.6011C420.409 74.8397 419.633 74.2148 418.76 73.7627C417.888 73.3107 416.936 73.0405 415.96 72.968C415.175 72.9035 414.388 72.8633 413.6 72.8474H413.659ZM58.4197 72.8474L56.0593 72.968C55.0907 73.0551 54.1483 73.3363 53.286 73.7956C52.4237 74.2549 51.6583 74.8833 51.0337 75.6449C49.7721 77.1829 49.1601 79.1701 49.3322 81.1693C49.5044 83.1685 50.4466 85.016 51.9516 86.3052C53.4567 87.5945 55.4013 88.2199 57.3576 88.044C60.4524 87.7626 63.5615 88.3917 66.3178 89.8572C69.0742 91.3227 71.3629 93.5633 72.9137 96.3147C74.4646 99.0661 75.213 102.213 75.0706 105.385C74.9282 108.557 73.9009 111.621 72.11 114.216C71.5559 115.032 71.1645 115.951 70.9581 116.921C70.7516 117.891 70.7342 118.894 70.9068 119.871C71.2554 121.844 72.3568 123.596 73.9688 124.739C75.5808 125.883 77.5713 126.325 79.5024 125.969C81.4335 125.612 83.147 124.487 84.266 122.839C87.9962 117.487 89.9973 111.078 89.99 104.507C89.9743 98.9618 88.539 93.5172 85.8268 88.7143C83.1145 83.9114 79.2198 79.9174 74.5294 77.129C69.657 74.2497 64.1059 72.7898 58.4787 72.9077L58.4197 72.8474ZM668.227 82.8578C666.872 82.863 665.545 83.2496 664.391 83.9751C663.236 84.7006 662.3 85.737 661.684 86.9706C661.068 88.2041 660.797 89.5872 660.9 90.968C661.003 92.3488 661.476 93.674 662.267 94.7981C663.597 96.6818 664.526 98.8292 664.995 101.102C665.464 103.375 665.462 105.723 664.989 107.995C664.517 110.267 663.584 112.412 662.252 114.294C660.919 116.176 659.216 117.751 657.251 118.92C654.287 120.665 650.857 121.404 647.456 121.03C646.487 120.947 645.512 121.06 644.586 121.362C643.66 121.664 642.801 122.149 642.059 122.79C640.559 124.085 639.624 125.936 639.46 127.935C639.296 129.934 639.915 131.918 641.182 133.451C642.449 134.983 644.26 135.938 646.217 136.106C652.413 136.649 658.786 135.383 664.569 131.945C669.275 129.155 673.184 125.154 675.906 120.34C678.629 115.526 680.071 110.067 680.088 104.507C680.096 97.9361 678.094 91.5268 674.364 86.1746C673.686 85.1495 672.772 84.3107 671.701 83.7323C670.631 83.1538 669.438 82.8535 668.227 82.8578ZM275.871 82.8578C273.334 82.8578 271.15 84.1845 269.734 86.1746C266.025 91.534 264.044 97.9426 264.069 104.507C264.069 115.784 269.97 126.337 279.53 131.945C285.097 135.244 291.535 136.678 297.941 136.046C298.916 135.974 299.868 135.703 300.741 135.251C301.613 134.799 302.389 134.174 303.023 133.413C303.657 132.652 304.136 131.769 304.433 130.816C304.73 129.864 304.839 128.86 304.753 127.865C304.667 126.869 304.388 125.9 303.932 125.016C303.476 124.131 302.853 123.348 302.098 122.712C301.343 122.076 300.472 121.6 299.535 121.311C298.599 121.022 297.615 120.927 296.642 121.03C293.548 121.312 290.439 120.683 287.682 119.217C284.926 117.752 282.637 115.511 281.086 112.76C279.535 110.008 278.787 106.861 278.929 103.689C279.072 100.517 280.099 97.4531 281.89 94.8584C282.701 93.7301 283.189 92.3933 283.298 90.9977C283.408 89.6021 283.135 88.203 282.51 86.9571C281.885 85.7112 280.933 84.6678 279.76 83.9438C278.588 83.2197 277.241 82.8437 275.871 82.8578ZM295.049 96.969C293.093 96.969 291.217 97.7632 289.833 99.1768C288.45 100.59 287.673 102.508 287.673 104.507C287.673 106.506 288.45 108.424 289.833 109.837C291.217 111.251 293.093 112.045 295.049 112.045C297.005 112.045 298.882 111.251 300.265 109.837C301.648 108.424 302.425 106.506 302.425 104.507C302.425 102.508 301.648 100.59 300.265 99.1768C298.882 97.7632 297.005 96.969 295.049 96.969ZM413.069 96.969C411.112 96.969 409.236 97.7632 407.853 99.1768C406.47 100.59 405.693 102.508 405.693 104.507C405.693 106.506 406.47 108.424 407.853 109.837C409.236 111.251 411.112 112.045 413.069 112.045C415.025 112.045 416.901 111.251 418.285 109.837C419.668 108.424 420.445 106.506 420.445 104.507C420.445 102.508 419.668 100.59 418.285 99.1768C416.901 97.7632 415.025 96.969 413.069 96.969ZM58.4787 96.969C57.5101 97.0403 56.5646 97.3058 55.6964 97.7505C54.8282 98.1952 54.0541 98.8102 53.4185 99.5606C52.7829 100.311 52.2981 101.182 51.9918 102.124C51.6856 103.066 51.5639 104.06 51.6336 105.05C51.7033 106.04 51.9632 107.006 52.3983 107.893C52.8334 108.78 53.4353 109.571 54.1696 110.221C54.9038 110.871 55.7561 111.366 56.6777 111.679C57.5993 111.992 58.5723 112.116 59.5409 112.045C61.4972 111.901 63.3174 110.969 64.6011 109.453C65.8849 107.938 66.5269 105.963 66.3861 103.964C66.2452 101.965 65.333 100.105 63.8501 98.7931C62.3672 97.4812 60.435 96.8251 58.4787 96.969ZM649.639 96.969C648.671 96.8977 647.698 97.0221 646.776 97.3351C645.854 97.6481 645.002 98.1435 644.268 98.7931C643.534 99.4426 642.932 100.234 642.497 101.121C642.061 102.008 641.802 102.974 641.732 103.964C641.662 104.954 641.784 105.948 642.09 106.89C642.396 107.832 642.881 108.703 643.517 109.453C644.152 110.204 644.926 110.819 645.795 111.264C646.663 111.708 647.608 111.974 648.577 112.045C650.533 112.189 652.465 111.533 653.948 110.221C655.431 108.909 656.344 107.049 656.484 105.05C656.625 103.051 655.983 101.076 654.699 99.5606C653.416 98.0452 651.595 97.113 649.639 96.969ZM472.079 104.989C447.122 104.969 423.029 114.329 404.389 131.287C385.749 148.246 373.863 171.618 370.995 196.953C370.747 198.37 370.901 199.83 371.439 201.16C371.977 202.49 372.876 203.635 374.03 204.459C375.184 205.283 376.546 205.753 377.953 205.812C379.36 205.871 380.754 205.518 381.971 204.793C382.968 204.193 383.814 203.362 384.439 202.367C385.065 201.372 385.452 200.24 385.57 199.064C387.083 185.219 391.759 171.931 399.221 160.272C406.684 148.613 416.723 138.91 428.529 131.945C441.771 124.168 456.776 120.075 472.049 120.075C487.322 120.075 502.327 124.168 515.569 131.945C527.375 138.91 537.415 148.613 544.877 160.272C552.339 171.931 557.015 185.219 558.528 199.064C558.802 201.047 559.836 202.838 561.401 204.042C562.967 205.247 564.937 205.766 566.878 205.486C568.819 205.206 570.571 204.15 571.75 202.55C572.928 200.95 573.436 198.936 573.162 196.953C570.295 171.618 558.409 148.246 539.768 131.287C521.128 114.329 497.035 104.969 472.079 104.989ZM708.118 128.207C702.863 141.883 693.233 153.339 680.796 160.71C673.188 165.21 664.745 168.038 656.007 169.014C647.269 169.99 638.427 169.093 630.048 166.379C628.631 165.934 627.116 165.935 625.7 166.382C624.284 166.829 623.033 167.702 622.109 168.887C621.186 170.071 620.633 171.513 620.523 173.023C620.413 174.534 620.75 176.043 621.492 177.354C621.972 178.221 622.616 178.981 623.385 179.592C624.155 180.203 625.036 180.651 625.976 180.912C640.467 185.525 655.961 185.711 670.554 181.447C685.147 177.183 698.203 168.655 708.118 156.911V128.207ZM472.079 129.111C454.34 129.081 437.122 135.23 423.262 146.543C409.402 157.856 399.729 173.659 395.838 191.345C395.472 192.781 395.53 194.294 396.002 195.697C396.475 197.1 397.342 198.329 398.495 199.23C399.648 200.131 401.035 200.665 402.483 200.764C403.932 200.863 405.376 200.524 406.637 199.788C407.52 199.276 408.29 198.583 408.9 197.753C409.509 196.923 409.944 195.973 410.177 194.963C412.077 186.188 415.744 177.912 420.946 170.665C426.148 163.418 432.77 157.358 440.39 152.871C450.033 147.21 460.958 144.231 472.079 144.231C483.199 144.231 494.125 147.21 503.767 152.871C511.387 157.358 518.01 163.418 523.211 170.665C528.413 177.912 532.081 186.188 533.98 194.963C534.309 196.439 535.065 197.78 536.15 198.811C537.235 199.842 538.598 200.515 540.063 200.743C541.527 200.971 543.025 200.742 544.361 200.088C545.697 199.434 546.809 198.383 547.552 197.074C548.614 195.265 548.791 193.214 548.319 191.345C544.44 173.648 534.772 157.831 520.911 146.506C507.05 135.181 489.825 129.024 472.079 129.051V129.111ZM472.079 153.233C460.664 153.206 449.53 156.848 440.253 163.645C430.976 170.441 424.026 180.048 420.386 191.104C420.061 192.038 419.918 193.029 419.968 194.02C420.017 195.01 420.257 195.981 420.673 196.877C421.089 197.773 421.674 198.577 422.395 199.241C423.115 199.906 423.956 200.42 424.871 200.752C425.785 201.085 426.755 201.23 427.724 201.18C428.693 201.13 429.644 200.885 430.52 200.459C431.397 200.034 432.183 199.436 432.834 198.7C433.484 197.964 433.987 197.104 434.312 196.169C437.371 186.733 443.712 178.772 452.133 173.796C458.192 170.236 465.06 168.362 472.049 168.362C479.039 168.362 485.906 170.236 491.965 173.796C500.397 178.746 506.759 186.685 509.845 196.109C510.494 197.996 511.851 199.542 513.616 200.408C515.381 201.273 517.41 201.386 519.257 200.722C521.104 200.059 522.617 198.672 523.463 196.868C524.31 195.065 524.421 192.991 523.771 191.104C520.142 180.036 513.195 170.417 503.918 163.609C494.64 156.801 483.501 153.15 472.079 153.172V153.233ZM708.118 169.937C695.713 181.667 680.229 189.443 663.563 192.314C646.898 195.185 629.774 193.025 614.292 186.098C612.87 185.47 611.29 185.315 609.777 185.656C608.264 185.997 606.894 186.816 605.862 187.998C604.83 189.179 604.188 190.662 604.028 192.237C603.868 193.813 604.197 195.399 604.969 196.772C605.828 198.303 607.185 199.476 608.804 200.089C624.861 207.195 642.441 209.94 659.841 208.059C677.242 206.179 693.871 199.736 708.118 189.355V169.937ZM472.079 177.415C466.157 177.411 460.359 179.142 455.371 182.401C450.382 185.661 446.412 190.313 443.931 195.807C443.516 196.702 443.278 197.672 443.23 198.661C443.182 199.65 443.326 200.639 443.652 201.571C443.978 202.503 444.48 203.361 445.131 204.095C445.781 204.829 446.566 205.424 447.442 205.848C448.318 206.272 449.266 206.515 450.234 206.564C451.202 206.613 452.169 206.467 453.082 206.134C453.994 205.8 454.833 205.287 455.551 204.622C456.27 203.958 456.853 203.155 457.267 202.26C458.624 199.184 460.926 196.471 463.935 194.662C465.906 193.506 468.092 192.784 470.353 192.543C472.613 192.303 474.898 192.548 477.06 193.264C479.222 193.979 481.214 195.149 482.907 196.699C484.6 198.248 485.956 200.143 486.89 202.26C487.456 203.518 488.35 204.592 489.473 205.365C490.597 206.138 491.907 206.58 493.26 206.642C494.613 206.705 495.957 206.385 497.144 205.718C498.332 205.052 499.316 204.064 499.99 202.863C501.229 200.632 501.288 198.039 500.226 195.807C497.757 190.304 493.79 185.644 488.798 182.382C483.807 179.121 478.003 177.396 472.079 177.415ZM236.57 201.536C235.602 201.465 234.629 201.589 233.707 201.902C232.786 202.215 231.933 202.711 231.199 203.36C230.465 204.01 229.863 204.801 229.428 205.688C228.993 206.576 228.733 207.542 228.663 208.532C228.593 209.522 228.715 210.516 229.021 211.458C229.328 212.399 229.812 213.27 230.448 214.021C231.084 214.771 231.858 215.386 232.726 215.831C233.594 216.276 234.54 216.541 235.508 216.612C237.465 216.756 239.397 216.1 240.88 214.788C242.362 213.476 243.275 211.616 243.416 209.617C243.556 207.618 242.914 205.643 241.631 204.128C240.347 202.613 238.527 201.68 236.57 201.536ZM471.548 201.536C470.546 201.556 469.559 201.784 468.647 202.206C467.735 202.628 466.916 203.236 466.241 203.992C465.566 204.748 465.048 205.636 464.72 206.603C464.392 207.57 464.26 208.596 464.332 209.616C464.404 210.637 464.679 211.632 465.14 212.541C465.601 213.45 466.238 214.253 467.013 214.902C467.787 215.551 468.683 216.032 469.645 216.316C470.607 216.599 471.616 216.68 472.61 216.552C474.566 216.408 476.386 215.476 477.67 213.96C478.954 212.445 479.596 210.471 479.455 208.471C479.314 206.472 478.402 204.612 476.919 203.3C475.436 201.988 473.504 201.332 471.548 201.476V201.536ZM412.302 209.496C398.705 209.597 385.264 212.467 372.765 217.939C370.942 218.683 369.482 220.136 368.708 221.98C367.933 223.823 367.907 225.905 368.634 227.769C369.362 229.632 370.784 231.123 372.588 231.915C374.392 232.707 376.43 232.734 378.253 231.99C390.738 226.415 404.331 223.92 417.934 224.705C431.537 225.491 444.768 229.536 456.559 236.513C469.773 244.352 480.748 255.592 488.388 269.113C496.029 282.635 500.07 297.967 500.108 313.581C500.109 327.514 496.905 341.251 490.755 353.685C484.605 366.119 475.68 376.901 464.702 385.162C463.153 386.402 462.149 388.22 461.911 390.216C461.673 392.212 462.221 394.223 463.434 395.806C464.647 397.389 466.425 398.416 468.379 398.659C470.332 398.902 472.3 398.342 473.849 397.103C486.589 387.417 496.933 374.819 504.055 360.316C511.176 345.813 514.877 329.808 514.861 313.581C514.822 295.317 510.099 277.382 501.164 261.563C492.229 245.745 479.393 232.596 463.935 223.427C448.272 214.153 430.462 209.343 412.361 209.496H412.302ZM59.777 209.496C38.3549 209.301 17.4248 216.058 0 228.794L0 248.212C12.4052 236.482 27.8893 228.705 44.5548 225.835C61.2204 222.964 78.3435 225.124 93.8256 232.05C95.2548 232.694 96.8469 232.857 98.3727 232.516C99.8985 232.176 101.279 231.35 102.316 230.156C103.353 228.962 103.992 227.463 104.142 225.875C104.291 224.286 103.944 222.69 103.149 221.316C102.283 219.805 100.926 218.653 99.3135 218.06C86.8228 212.547 73.3818 209.636 59.777 209.496ZM213.97 211.426C212.764 211.516 211.599 211.907 210.576 212.565C209.553 213.223 208.704 214.128 208.104 215.2C207.503 216.273 207.17 217.479 207.133 218.714C207.096 219.948 207.357 221.173 207.892 222.281C210.563 228.262 214.999 233.239 220.579 236.513C225.285 239.269 230.615 240.718 236.039 240.718C241.464 240.718 246.793 239.269 251.5 236.513C257.08 233.239 261.516 228.262 264.187 222.281C264.662 221.378 264.952 220.387 265.039 219.366C265.126 218.345 265.009 217.317 264.694 216.344C264.379 215.371 263.873 214.474 263.208 213.707C262.542 212.941 261.731 212.321 260.823 211.886C259.915 211.451 258.93 211.209 257.928 211.176C256.926 211.143 255.927 211.32 254.994 211.694C254.061 212.069 253.212 212.634 252.5 213.355C251.787 214.076 251.226 214.939 250.851 215.889C249.546 218.772 247.46 221.214 244.841 222.925C242.221 224.636 239.178 225.545 236.069 225.545C232.96 225.545 229.916 224.636 227.297 222.925C224.677 221.214 222.592 218.772 221.287 215.889C220.669 214.463 219.633 213.268 218.323 212.468C217.012 211.669 215.491 211.305 213.97 211.426ZM141.683 212.331C140.656 212.408 139.656 212.704 138.748 213.2C137.84 213.695 137.043 214.38 136.41 215.209C135.776 216.039 135.319 216.994 135.069 218.015C134.818 219.036 134.78 220.098 134.955 221.135C136.775 237.248 142.259 252.703 150.969 266.263C159.678 279.823 171.372 291.113 185.114 299.229C200.605 308.341 218.165 313.137 236.039 313.137C253.913 313.137 271.474 308.341 286.965 299.229C300.707 291.113 312.401 279.823 321.11 266.263C329.819 252.703 335.303 237.248 337.123 221.135C337.33 220.126 337.331 219.084 337.128 218.073C336.924 217.063 336.52 216.107 335.94 215.262C335.361 214.418 334.618 213.705 333.757 213.166C332.897 212.627 331.937 212.274 330.938 212.13C329.939 211.985 328.921 212.051 327.948 212.325C326.975 212.598 326.067 213.072 325.28 213.719C324.494 214.365 323.846 215.169 323.376 216.082C322.906 216.995 322.624 217.996 322.548 219.025C321.035 232.87 316.359 246.158 308.896 257.816C301.434 269.475 291.395 279.178 279.589 286.143C267.072 293.555 252.943 297.659 238.483 298.084C224.022 298.509 209.687 295.241 196.773 288.577C183.86 281.913 172.777 272.063 164.528 259.918C156.279 247.774 151.125 233.718 149.531 219.025C149.308 217.1 148.368 215.337 146.907 214.101C145.445 212.866 143.574 212.254 141.683 212.391V212.331ZM190.779 216.793C189.619 216.865 188.493 217.215 187.491 217.816C186.489 218.416 185.641 219.25 185.014 220.249C184.387 221.248 184 222.384 183.884 223.565C183.768 224.746 183.926 225.939 184.347 227.045C188.594 239.88 197.282 250.687 208.777 257.438C217.073 262.305 226.473 264.866 236.039 264.866C245.606 264.866 255.005 262.305 263.302 257.438C274.797 250.687 283.484 239.88 287.732 227.045C288.057 226.111 288.2 225.12 288.15 224.129C288.101 223.138 287.861 222.167 287.445 221.271C287.029 220.376 286.443 219.572 285.723 218.907C285.003 218.242 284.162 217.729 283.247 217.396C282.333 217.064 281.363 216.918 280.394 216.969C279.424 217.019 278.474 217.264 277.598 217.69C276.721 218.115 275.935 218.713 275.284 219.449C274.633 220.185 274.131 221.045 273.806 221.979C270.734 231.393 264.394 239.331 255.985 244.292C249.919 247.864 243.04 249.744 236.039 249.744C229.038 249.744 222.16 247.864 216.094 244.292C207.684 239.331 201.344 231.393 198.273 221.979C197.765 220.387 196.753 219.013 195.396 218.074C194.039 217.135 192.414 216.684 190.779 216.793ZM166.408 217.276C165.316 217.352 164.255 217.675 163.301 218.221C162.347 218.768 161.523 219.525 160.891 220.437C160.258 221.349 159.832 222.394 159.643 223.495C159.454 224.596 159.507 225.726 159.799 226.804C162.178 237.547 166.71 247.669 173.108 256.533C179.507 265.397 187.633 272.81 196.975 278.303C208.871 285.287 222.35 288.962 236.069 288.962C249.788 288.962 263.267 285.287 275.163 278.303C284.5 272.797 292.619 265.372 299.007 256.498C305.396 247.623 309.915 237.492 312.28 226.743C312.646 225.308 312.588 223.794 312.116 222.391C311.643 220.989 310.776 219.76 309.623 218.858C308.47 217.957 307.083 217.423 305.635 217.324C304.186 217.225 302.741 217.565 301.481 218.301C300.598 218.813 299.828 219.505 299.218 220.335C298.609 221.166 298.174 222.115 297.941 223.125C296.041 231.901 292.374 240.176 287.172 247.423C281.97 254.67 275.348 260.73 267.728 265.217C258.085 270.878 247.159 273.857 236.039 273.857C224.919 273.857 213.993 270.878 204.351 265.217C196.737 260.737 190.119 254.686 184.917 247.45C179.716 240.214 176.045 231.95 174.138 223.186C173.76 221.416 172.77 219.844 171.35 218.759C169.931 217.673 168.176 217.147 166.408 217.276ZM593.049 228.311C591.279 228.311 589.626 228.975 588.328 230.06C575.596 239.739 565.256 252.328 558.135 266.82C551.014 281.311 547.309 297.305 547.316 313.521C547.349 331.78 552.063 349.711 560.988 365.529C569.912 381.347 582.736 394.499 598.183 403.676C611.917 411.802 627.323 416.526 643.166 417.468C659.009 418.411 674.848 415.546 689.412 409.103C690.33 408.749 691.17 408.212 691.883 407.522C692.596 406.832 693.166 406.004 693.562 405.086C693.957 404.167 694.169 403.178 694.185 402.175C694.202 401.172 694.022 400.176 693.657 399.245C693.292 398.314 692.748 397.466 692.058 396.753C691.369 396.039 690.547 395.473 689.64 395.088C688.734 394.704 687.761 394.507 686.78 394.512C685.798 394.516 684.827 394.72 683.924 395.113C671.436 400.706 657.834 403.217 644.22 402.442C630.606 401.667 617.362 397.627 605.559 390.65C592.347 382.798 581.379 371.546 573.748 358.013C566.118 344.48 562.091 329.14 562.069 313.521C562.061 299.594 565.256 285.86 571.396 273.426C577.536 260.993 586.448 250.208 597.415 241.94C598.675 241.002 599.611 239.68 600.089 238.164C600.568 236.649 600.565 235.017 600.08 233.504C599.595 231.99 598.653 230.673 597.39 229.74C596.127 228.807 594.607 228.307 593.049 228.311ZM351.108 228.311C349.534 228.289 347.994 228.781 346.714 229.717C345.433 230.653 344.479 231.983 343.992 233.512C343.504 235.042 343.507 236.691 344.002 238.218C344.497 239.745 345.457 241.071 346.742 242C357.709 250.268 366.622 261.053 372.761 273.487C378.901 285.92 382.096 299.654 382.089 313.581C382.05 329.196 378.01 344.527 370.369 358.049C362.728 371.571 351.754 382.811 338.539 390.65C326.749 397.627 313.517 401.672 299.914 402.458C286.311 403.243 272.718 400.748 260.233 395.173C258.811 394.544 257.231 394.389 255.718 394.73C254.205 395.071 252.835 395.891 251.803 397.072C250.771 398.253 250.129 399.737 249.969 401.312C249.809 402.887 250.138 404.474 250.91 405.847C251.751 407.369 253.087 408.543 254.686 409.163C269.25 415.606 285.089 418.471 300.932 417.529C316.775 416.586 332.182 411.862 345.916 403.736C361.373 394.567 374.209 381.418 383.144 365.6C392.079 349.781 396.802 331.846 396.841 313.581C396.857 297.355 393.157 281.35 386.035 266.847C378.914 252.343 368.569 239.745 355.829 230.06C354.499 228.948 352.827 228.35 351.108 228.372V228.311ZM708.118 228.734C694.909 238.391 684.14 251.124 676.701 265.878C669.262 280.632 665.366 296.984 665.336 313.581C665.32 329.808 669.02 345.813 676.142 360.316C683.263 374.819 693.608 387.417 706.348 397.103C706.938 397.585 707.528 397.947 708.118 398.188V379.011C699.269 370.681 692.209 360.565 687.384 349.302C682.56 338.04 680.075 325.876 680.088 313.581C680.088 288.615 690.533 264.856 708.118 248.212V228.734ZM413.246 233.558C405.342 233.558 397.484 234.777 389.937 237.176C389.007 237.453 388.14 237.915 387.384 238.535C386.629 239.154 386 239.92 385.535 240.788C384.594 242.541 384.373 244.604 384.921 246.523C385.469 248.442 386.74 250.061 388.456 251.022C390.171 251.983 392.19 252.209 394.068 251.649C402.451 248.944 411.295 248.057 420.033 249.043C428.771 250.03 437.212 252.868 444.816 257.378C454.432 263.108 462.411 271.311 467.961 281.172C473.51 291.032 476.435 302.206 476.445 313.581C476.453 322.563 474.632 331.448 471.096 339.67C467.561 347.893 462.389 355.274 455.91 361.342C455.153 362.012 454.537 362.832 454.1 363.752C453.663 364.672 453.414 365.674 453.368 366.696C453.322 367.718 453.48 368.739 453.832 369.697C454.185 370.654 454.724 371.529 455.418 372.266C456.112 373.004 456.945 373.59 457.867 373.987C458.79 374.385 459.782 374.587 460.783 374.581C461.784 374.574 462.773 374.36 463.691 373.95C464.608 373.54 465.434 372.944 466.119 372.197C474.041 364.729 480.365 355.666 484.691 345.578C489.017 335.49 491.253 324.596 491.257 313.581C491.234 299.544 487.609 285.759 480.744 273.601C473.879 261.443 464.014 251.337 452.133 244.292C440.312 237.307 426.9 233.626 413.246 233.618V233.558ZM58.8328 233.618C47.6645 233.622 36.6282 236.086 26.4757 240.841C16.3231 245.597 7.29288 252.533 0 261.177L0 289.942C5.24362 276.244 14.8744 264.765 27.3216 257.378C34.9296 252.878 43.3725 250.05 52.1108 249.074C60.849 248.098 69.6904 248.996 78.07 251.709C79.015 252.037 80.0153 252.165 81.0103 252.087C82.0052 252.008 82.9742 251.723 83.8585 251.251C84.7428 250.778 85.5241 250.127 86.1551 249.337C86.786 248.547 87.2535 247.634 87.5292 246.654C87.805 245.674 87.8832 244.647 87.7593 243.635C87.6353 242.623 87.3117 241.647 86.808 240.767C86.3043 239.886 85.6311 239.119 84.829 238.513C84.0269 237.906 83.1127 237.472 82.1417 237.236C74.5947 234.838 66.7364 233.618 58.8328 233.618ZM601.192 252.674C599.186 252.674 597.297 253.518 595.999 254.905C588.088 262.379 581.775 271.444 577.459 281.532C573.143 291.62 570.917 302.511 570.92 313.521C570.937 327.552 574.553 341.334 581.407 353.491C588.262 365.649 598.115 375.758 609.985 382.811C619.314 388.336 629.665 391.821 640.381 393.046C651.098 394.271 661.946 393.209 672.24 389.926C674.118 389.367 675.702 388.067 676.642 386.314C677.583 384.561 677.804 382.499 677.256 380.579C676.708 378.66 675.437 377.042 673.721 376.08C672.006 375.119 669.987 374.894 668.109 375.453C659.725 378.154 650.882 379.04 642.144 378.054C633.407 377.067 624.966 374.231 617.361 369.725C607.743 364.008 599.757 355.817 594.198 345.967C588.638 336.118 585.699 324.952 585.673 313.581C585.664 304.6 587.486 295.715 591.022 287.492C594.557 279.27 599.729 271.889 606.208 265.821C607.302 264.792 608.067 263.449 608.402 261.968C608.736 260.488 608.625 258.938 608.083 257.523C607.54 256.108 606.592 254.894 605.362 254.039C604.133 253.185 602.679 252.73 601.192 252.735V252.674ZM342.906 252.674C341.411 252.668 339.95 253.127 338.715 253.989C337.481 254.851 336.532 256.076 335.995 257.502C335.457 258.927 335.356 260.486 335.705 261.972C336.054 263.458 336.837 264.8 337.949 265.821C344.428 271.889 349.6 279.27 353.136 287.492C356.671 295.715 358.493 304.6 358.485 313.581C358.458 324.952 355.519 336.118 349.96 345.967C344.4 355.817 336.415 364.008 326.796 369.725C319.193 374.234 310.752 377.073 302.013 378.059C293.275 379.046 284.432 378.158 276.048 375.453C275.118 375.176 274.144 375.089 273.181 375.197C272.218 375.304 271.285 375.604 270.436 376.08C269.587 376.556 268.837 377.199 268.231 377.971C267.624 378.743 267.173 379.629 266.901 380.579C266.63 381.53 266.545 382.525 266.65 383.509C266.755 384.493 267.049 385.446 267.515 386.314C267.981 387.182 268.609 387.948 269.365 388.568C270.12 389.188 270.987 389.649 271.917 389.926C282.202 393.2 293.04 394.258 303.746 393.033C314.451 391.808 324.792 388.327 334.114 382.811C345.986 375.771 355.845 365.675 362.71 353.528C369.574 341.381 373.204 327.608 373.237 313.581C373.249 302.561 371.027 291.658 366.71 281.56C362.394 271.461 356.077 262.385 348.158 254.905C347.48 254.201 346.671 253.642 345.78 253.259C344.889 252.876 343.932 252.677 342.965 252.674H342.906ZM411.948 257.74C408.761 257.8 405.575 258.222 402.447 258.825C400.936 259.064 399.535 259.777 398.438 260.866C397.34 261.954 396.601 263.364 396.323 264.901C396.044 266.437 396.239 268.024 396.882 269.442C397.525 270.86 398.583 272.039 399.91 272.816C401.562 273.781 403.391 274.022 405.102 273.66C414.63 271.665 424.542 273.318 432.955 278.303C439.008 281.889 444.034 287.033 447.534 293.223C451.034 299.413 452.884 306.432 452.9 313.581C452.9 323.954 449.124 333.421 442.869 340.598C441.926 341.682 441.31 343.022 441.094 344.455C440.878 345.889 441.071 347.356 441.65 348.68C442.23 350.004 443.171 351.129 444.36 351.92C445.55 352.712 446.937 353.135 448.357 353.141C450.717 353.141 452.782 352.055 454.081 350.367C462.837 340.203 467.663 327.123 467.653 313.581C467.63 303.783 465.095 294.163 460.302 285.677C455.508 277.192 448.623 270.138 440.331 265.217C431.737 260.123 421.94 257.537 412.007 257.74H411.948ZM60.131 257.74C50.1667 257.562 40.3467 260.191 31.7473 265.338C23.4732 270.248 16.599 277.283 11.8064 285.745C7.01382 294.208 4.46947 303.804 4.42574 313.581C4.42574 327.693 9.55959 340.537 17.998 350.367C18.9685 351.556 20.2739 352.411 21.7367 352.816C23.1996 353.22 24.7487 353.154 26.1736 352.627C27.5985 352.1 28.83 351.137 29.7005 349.87C30.5711 348.602 31.0385 347.091 31.0392 345.543C31.0392 343.733 30.3901 341.924 29.2099 340.598C22.7359 333.155 19.1655 323.54 19.1782 313.581C19.1782 299.108 26.8495 285.54 39.1235 278.303C47.5364 273.318 57.4489 271.665 66.9762 273.66C67.9293 273.838 68.9075 273.823 69.8548 273.615C70.8021 273.407 71.7001 273.01 72.4974 272.447C73.2946 271.884 73.9756 271.166 74.5015 270.335C75.0273 269.503 75.3877 268.574 75.5621 267.599C75.7364 266.625 75.7214 265.626 75.5177 264.658C75.314 263.69 74.9257 262.772 74.375 261.957C73.8243 261.142 73.122 260.446 72.3081 259.909C71.4942 259.372 70.5848 259.003 69.6316 258.825C66.5027 258.175 63.3232 257.812 60.131 257.74ZM708.118 261.177C695.795 275.714 688.989 294.289 688.94 313.521C688.903 332.806 695.717 351.449 708.118 365.986V337.402C702.211 322.116 702.211 305.107 708.118 289.822V261.117V261.177ZM613.761 273.962C611.46 273.962 609.395 275.107 608.037 276.796C599.281 286.96 594.455 300.04 594.465 313.581C594.498 323.369 597.038 332.978 601.831 341.452C606.624 349.926 613.504 356.97 621.787 361.885C633.247 368.675 646.743 370.949 659.73 368.277C660.683 368.099 661.593 367.731 662.406 367.193C663.22 366.656 663.923 365.96 664.473 365.145C665.024 364.331 665.412 363.413 665.616 362.445C665.82 361.477 665.835 360.477 665.66 359.503C665.486 358.529 665.126 357.599 664.6 356.768C664.074 355.936 663.393 355.218 662.596 354.655C661.798 354.093 660.9 353.696 659.953 353.488C659.006 353.28 658.028 353.264 657.074 353.442C647.536 355.471 637.6 353.839 629.163 348.859C623.113 345.262 618.092 340.105 614.603 333.904C611.113 327.703 609.277 320.674 609.276 313.521C609.276 303.209 613.053 293.741 619.308 286.565C620.254 285.477 620.871 284.132 621.085 282.693C621.299 281.254 621.101 279.782 620.514 278.456C619.928 277.129 618.978 276.005 617.78 275.218C616.581 274.431 615.186 274.016 613.761 274.022V273.962ZM330.455 274.022C329.031 274.016 327.635 274.431 326.437 275.218C325.238 276.005 324.288 277.129 323.702 278.456C323.115 279.782 322.917 281.254 323.131 282.693C323.345 284.132 323.962 285.477 324.908 286.565C331.382 294.008 334.952 303.623 334.94 313.581C334.94 328.054 327.268 341.623 315.053 348.859C306.624 353.86 296.688 355.513 287.142 353.503C286.189 353.325 285.211 353.34 284.263 353.548C283.316 353.756 282.418 354.153 281.621 354.716C280.823 355.279 280.142 355.996 279.616 356.828C279.091 357.66 278.73 358.589 278.556 359.563C278.382 360.537 278.397 361.537 278.6 362.505C278.804 363.473 279.192 364.391 279.743 365.206C280.294 366.02 280.996 366.716 281.81 367.254C282.624 367.791 283.533 368.159 284.486 368.338C296.996 370.87 310.451 368.941 322.43 361.945C330.699 357.01 337.561 349.949 342.333 341.465C347.105 332.981 349.622 323.368 349.633 313.581C349.633 299.47 344.499 286.625 336.061 276.796C335.368 275.928 334.495 275.229 333.505 274.749C332.515 274.269 331.433 274.021 330.337 274.022H330.455ZM412.597 281.861C411.771 281.861 411.003 281.922 410.236 282.042C409.25 282.096 408.285 282.352 407.397 282.795C406.51 283.238 405.718 283.858 405.07 284.619C404.421 285.38 403.928 286.266 403.621 287.226C403.314 288.185 403.199 289.197 403.282 290.203C403.365 291.209 403.645 292.187 404.105 293.08C404.565 293.973 405.195 294.763 405.959 295.402C406.724 296.042 407.606 296.517 408.553 296.802C409.501 297.086 410.494 297.173 411.476 297.058C414.58 296.767 417.701 297.392 420.468 298.86C423.235 300.328 425.531 302.577 427.085 305.339C428.638 308.101 429.383 311.261 429.231 314.443C429.079 317.625 428.037 320.696 426.228 323.29C425.678 324.106 425.29 325.024 425.087 325.993C424.884 326.962 424.87 327.962 425.046 328.936C425.221 329.911 425.582 330.84 426.109 331.672C426.636 332.504 427.318 333.221 428.116 333.783C428.914 334.346 429.813 334.742 430.761 334.949C431.709 335.156 432.688 335.171 433.641 334.992C434.595 334.812 435.504 334.443 436.318 333.905C437.132 333.366 437.834 332.669 438.384 331.854C442.102 326.518 444.103 320.132 444.108 313.581C444.108 302.305 438.148 291.751 428.588 286.143C423.716 283.264 418.165 281.804 412.538 281.922L412.597 281.861ZM59.6589 281.922C54.171 281.801 48.6241 283.188 43.6083 286.143C38.8873 288.921 34.9634 292.918 32.2294 297.734C29.4953 302.549 28.0471 308.014 28.0297 313.581C28.0223 320.152 30.0235 326.562 33.7536 331.914C34.3077 332.73 35.0136 333.426 35.8309 333.963C36.6483 334.5 37.5611 334.867 38.5173 335.043C39.4734 335.219 40.4543 335.202 41.4037 334.991C42.3532 334.78 43.2527 334.38 44.0508 333.813C44.849 333.247 45.5302 332.526 46.0556 331.691C46.581 330.855 46.9403 329.922 47.1129 328.945C47.2855 327.968 47.2681 326.966 47.0616 325.996C46.8552 325.025 46.4637 324.106 45.9096 323.29C44.1007 320.696 43.0584 317.625 42.9066 314.443C42.7547 311.261 43.4997 308.101 45.0531 305.339C46.6065 302.577 48.903 300.328 51.6699 298.86C54.4367 297.392 57.5577 296.767 60.6621 297.058C61.6351 297.161 62.6186 297.066 63.5552 296.777C64.4918 296.489 65.3628 296.012 66.1176 295.376C66.8724 294.74 67.4958 293.957 67.9516 293.073C68.4075 292.188 68.6865 291.22 68.7726 290.224C68.8587 289.228 68.7501 288.225 68.4532 287.272C68.1562 286.32 67.6767 285.437 67.0428 284.675C66.4088 283.914 65.6329 283.289 64.7604 282.837C63.8878 282.385 62.936 282.115 61.9603 282.042C61.1749 281.978 60.3877 281.938 59.5999 281.922H59.6589ZM629.989 291.932C627.452 291.932 625.268 293.199 623.852 295.249C620.143 300.608 618.162 307.017 618.187 313.581C618.198 319.136 619.631 324.59 622.343 329.404C625.055 334.217 628.953 338.222 633.648 341.02C639.215 344.318 645.653 345.752 652.059 345.12C653.027 345.033 653.97 344.752 654.832 344.293C655.694 343.833 656.46 343.205 657.084 342.444C657.709 341.682 658.181 340.802 658.473 339.854C658.765 338.906 658.871 337.909 658.786 336.919C658.701 335.929 658.425 334.966 657.976 334.085C657.526 333.204 656.911 332.422 656.166 331.783C655.421 331.145 654.56 330.663 653.633 330.364C652.705 330.066 651.729 329.957 650.76 330.044C647.666 330.326 644.556 329.697 641.8 328.231C639.044 326.766 636.755 324.525 635.204 321.774C633.653 319.022 632.905 315.875 633.047 312.703C633.19 309.531 634.217 306.467 636.008 303.872C636.802 302.744 637.276 301.413 637.376 300.027C637.477 298.641 637.2 297.254 636.578 296.018C635.955 294.782 635.01 293.747 633.847 293.026C632.684 292.305 631.349 291.926 629.989 291.932ZM314.286 291.932C312.926 291.926 311.591 292.305 310.428 293.026C309.266 293.747 308.321 294.782 307.698 296.018C307.075 297.254 306.798 298.641 306.899 300.027C306.999 301.413 307.473 302.744 308.267 303.872C310.076 306.467 311.119 309.538 311.27 312.72C311.422 315.902 310.677 319.062 309.124 321.824C307.57 324.586 305.274 326.835 302.507 328.302C299.74 329.77 296.619 330.396 293.515 330.105C292.546 330.018 291.57 330.126 290.643 330.425C289.715 330.723 288.854 331.205 288.109 331.844C287.364 332.482 286.749 333.264 286.299 334.145C285.85 335.026 285.575 335.989 285.49 336.979C285.404 337.969 285.511 338.967 285.803 339.915C286.095 340.862 286.566 341.742 287.191 342.504C287.816 343.265 288.581 343.894 289.443 344.353C290.306 344.812 291.248 345.094 292.217 345.181C298.413 345.784 304.845 344.457 310.628 340.959C315.307 338.163 319.19 334.166 321.892 329.364C324.593 324.561 326.02 319.121 326.029 313.581C326.029 306.767 323.905 300.435 320.305 295.249C319.633 294.232 318.728 293.399 317.669 292.821C316.609 292.243 315.428 291.938 314.227 291.932H314.286ZM59.0098 306.043C57.0535 306.043 55.1774 306.838 53.794 308.251C52.4107 309.665 51.6336 311.582 51.6336 313.581C51.6336 315.581 52.4107 317.498 53.794 318.912C55.1774 320.325 57.0535 321.119 59.0098 321.119C60.9661 321.119 62.8423 320.325 64.2256 318.912C65.6089 317.498 66.3861 315.581 66.3861 313.581C66.3861 311.582 65.6089 309.665 64.2256 308.251C62.8423 306.838 60.9661 306.043 59.0098 306.043ZM649.108 306.043C647.152 306.043 645.276 306.838 643.892 308.251C642.509 309.665 641.732 311.582 641.732 313.581C641.732 315.581 642.509 317.498 643.892 318.912C645.276 320.325 647.152 321.119 649.108 321.119C651.064 321.119 652.941 320.325 654.324 318.912C655.707 317.498 656.484 315.581 656.484 313.581C656.484 311.582 655.707 309.665 654.324 308.251C652.941 306.838 651.064 306.043 649.108 306.043ZM295.58 306.043C293.624 305.899 291.692 306.556 290.209 307.867C288.726 309.179 287.814 311.039 287.673 313.039C287.532 315.038 288.174 317.012 289.458 318.528C290.742 320.043 292.562 320.975 294.518 321.119C295.487 321.191 296.46 321.066 297.381 320.753C298.303 320.44 299.155 319.945 299.889 319.295C300.624 318.646 301.226 317.855 301.661 316.967C302.096 316.08 302.356 315.114 302.425 314.124C302.495 313.134 302.373 312.14 302.067 311.198C301.761 310.256 301.276 309.385 300.64 308.635C300.005 307.885 299.231 307.27 298.363 306.825C297.494 306.38 296.549 306.115 295.58 306.043ZM412.538 306.043C411.569 306.115 410.624 306.38 409.755 306.825C408.887 307.27 408.113 307.885 407.477 308.635C406.842 309.385 406.357 310.256 406.051 311.198C405.745 312.14 405.623 313.134 405.693 314.124C405.762 315.114 406.022 316.08 406.457 316.967C406.892 317.855 407.494 318.646 408.229 319.295C408.963 319.945 409.815 320.44 410.737 320.753C411.658 321.066 412.631 321.191 413.6 321.119C415.556 320.975 417.376 320.043 418.66 318.528C419.944 317.012 420.586 315.038 420.445 313.039C420.304 311.039 419.392 309.179 417.909 307.867C416.426 306.556 414.494 305.899 412.538 306.043ZM118.079 314.064C93.1016 314.013 68.9801 323.36 50.315 340.321C31.6498 357.283 19.747 380.672 16.8768 406.028C16.6425 407.44 16.8067 408.891 17.3502 410.211C17.8937 411.531 18.7939 412.666 19.9455 413.482C21.0972 414.298 22.4525 414.762 23.8528 414.82C25.2532 414.877 26.6406 414.526 27.8526 413.807C28.8504 413.207 29.6961 412.377 30.3214 411.381C30.9467 410.386 31.3341 409.254 31.4522 408.078C32.9804 394.238 37.6696 380.958 45.1419 369.31C52.6142 357.662 62.6604 347.971 74.4704 341.02C87.7118 333.242 102.717 329.149 117.99 329.149C133.263 329.149 148.269 333.242 161.51 341.02C173.316 347.984 183.356 357.688 190.818 369.346C198.28 381.005 202.956 394.293 204.469 408.138C204.545 409.167 204.827 410.168 205.297 411.081C205.767 411.993 206.415 412.798 207.202 413.444C207.988 414.09 208.896 414.565 209.869 414.838C210.842 415.112 211.86 415.178 212.859 415.033C213.858 414.889 214.818 414.536 215.678 413.997C216.539 413.458 217.282 412.745 217.862 411.9C218.442 411.056 218.846 410.099 219.049 409.089C219.253 408.079 219.251 407.037 219.044 406.028C216.178 380.703 204.3 357.339 185.672 340.382C167.044 323.424 142.966 314.058 118.02 314.064H118.079ZM0 337.402V365.986C1.85493 368.183 3.8248 370.277 5.90098 372.257C6.92924 373.323 8.24458 374.051 9.67946 374.35C11.1143 374.649 12.6038 374.505 13.9582 373.936C15.3125 373.367 16.4704 372.398 17.2845 371.154C18.0985 369.91 18.5318 368.447 18.5291 366.951C18.5291 364.719 17.5849 362.729 16.1687 361.403C9.07142 354.756 3.54299 346.549 0 337.402H0ZM118.02 338.185C100.289 338.152 83.077 344.292 69.2184 355.594C55.3597 366.895 45.6817 382.684 41.779 400.359C41.3094 402.302 41.6145 404.356 42.6271 406.07C43.6397 407.783 45.2768 409.015 47.1784 409.495C49.0799 409.975 51.09 409.663 52.7666 408.628C54.4432 407.594 55.6488 405.92 56.1183 403.977C58.0176 395.202 61.6851 386.926 66.8869 379.679C72.0888 372.432 78.7109 366.372 86.3314 361.885C95.9806 356.213 106.917 353.228 118.049 353.228C129.181 353.228 140.118 356.213 149.767 361.885C157.383 366.385 163.998 372.457 169.189 379.715C174.381 386.973 178.036 395.256 179.921 404.038C180.25 405.514 181.006 406.855 182.091 407.885C183.176 408.916 184.539 409.589 186.004 409.817C187.468 410.045 188.966 409.817 190.302 409.162C191.638 408.508 192.75 407.458 193.493 406.148C194.555 404.339 194.732 402.289 194.26 400.419C190.369 382.733 180.696 366.931 166.837 355.617C152.977 344.304 135.758 338.155 118.02 338.185ZM118.02 362.307C106.612 362.276 95.4838 365.91 86.2077 372.695C76.9315 379.48 69.9769 389.073 66.327 400.118C65.6697 402.005 65.773 404.082 66.614 405.891C67.4551 407.701 68.965 409.095 70.8118 409.766C72.6585 410.438 74.6908 410.333 76.4614 409.473C78.232 408.614 79.5961 407.071 80.2534 405.183C83.3268 395.737 89.6901 387.775 98.1333 382.811C104.192 379.25 111.06 377.376 118.049 377.376C125.039 377.376 131.906 379.25 137.965 382.811C146.386 387.786 152.727 395.747 155.786 405.183C156.234 406.564 157.063 407.783 158.173 408.692C159.284 409.602 160.628 410.164 162.044 410.311C163.46 410.458 164.887 410.182 166.154 409.519C167.42 408.855 168.471 407.831 169.181 406.57C170.361 404.52 170.479 402.168 169.712 400.118C166.062 389.073 159.108 379.48 149.832 372.695C140.555 365.91 129.427 362.276 118.02 362.307ZM0 379.011V398.188C1.6587 398.911 3.51893 398.987 5.22914 398.403C6.93936 397.82 8.38111 396.616 9.28195 395.02C10.1828 393.424 10.4803 391.545 10.1183 389.74C9.75631 387.935 8.75984 386.328 7.31722 385.223C4.7676 383.271 2.32484 381.177 0 378.951L0 379.011ZM118.02 386.429C112.092 386.43 106.289 388.17 101.3 391.441C96.3109 394.711 92.3446 399.376 89.872 404.882C89.397 405.784 89.1071 406.776 89.02 407.797C88.9328 408.818 89.0503 409.846 89.3651 410.819C89.68 411.792 90.1856 412.689 90.8512 413.456C91.5167 414.222 92.3282 414.842 93.2361 415.277C94.1439 415.712 95.129 415.953 96.1312 415.986C97.1334 416.019 98.1317 415.843 99.065 415.468C99.9983 415.094 100.847 414.529 101.559 413.807C102.272 413.086 102.833 412.224 103.208 411.274C104.506 408.374 106.592 405.915 109.218 404.192C111.844 402.468 114.899 401.552 118.02 401.552C121.14 401.552 124.196 402.468 126.821 404.192C129.447 405.915 131.533 408.374 132.831 411.274C133.206 412.224 133.767 413.086 134.48 413.807C135.192 414.529 136.041 415.094 136.974 415.468C137.908 415.843 138.906 416.019 139.908 415.986C140.91 415.953 141.895 415.712 142.803 415.277C143.711 414.842 144.523 414.222 145.188 413.456C145.854 412.689 146.359 411.792 146.674 410.819C146.989 409.846 147.106 408.818 147.019 407.797C146.932 406.776 146.642 405.784 146.167 404.882C143.707 399.367 139.743 394.694 134.751 391.422C129.759 388.149 123.95 386.416 118.02 386.429ZM117.489 410.55C115.626 410.688 113.883 411.542 112.613 412.941C111.342 414.34 110.639 416.18 110.643 418.088H125.396C125.399 417.051 125.192 416.024 124.788 415.073C124.385 414.121 123.793 413.264 123.051 412.557C122.309 411.849 121.432 411.306 120.475 410.961C119.518 410.615 118.501 410.476 117.489 410.55ZM590.629 410.55C589.615 410.466 588.595 410.6 587.634 410.942C586.672 411.283 585.792 411.826 585.048 412.536C584.303 413.245 583.712 414.105 583.312 415.061C582.911 416.018 582.711 417.048 582.722 418.088H597.474C597.494 416.176 596.794 414.328 595.521 412.926C594.248 411.524 592.497 410.674 590.629 410.55Z" fill="url(#paint0_linear_2270_4081)" fill-opacity="0.3"/>
<defs>
<linearGradient id="paint0_linear_2270_4081" x1="354.059" y1="0" x2="354.059" y2="418.088" gradientUnits="userSpaceOnUse">
<stop stop-color="#54ADFF"/>
<stop offset="0.786458" stop-color="#C23264"/>
</linearGradient>
</defs>
</svg>
